$MeshFormat
4.1 0 8
$EndMeshFormat
$Entities
4 4 1 0
1 0 0 0 0 
2 3 0 0 0 
3 0 3 0 0 
4 2.12132 2.12132 0 0 
1 0 0 0 3 0 0 0 2 1 -2 
2 2.121320343559643 0 0 3 2.121320343559642 0 0 2 2 -4 
3 2.220446049250313e-16 2.12132 0 2.12132 2.999999514133294 0 0 2 4 -3 
4 0 0 0 0 3 0 0 2 3 -1 
1 0 0 0 3 3 0 0 4 1 2 3 4 
$EndEntities
$Nodes
9 833 1 833
0 1 0 1
1
0 0 0
0 2 0 1
2
3 0 0
0 3 0 1
3
0 3 0
0 4 0 1
4
2.12132 2.12132 0
1 1 0 31
5
6
7
8
9
10
11
12
13
14
15
16
17
18
19
20
21
22
23
24
25
26
27
28
29
30
31
32
33
34
35
0.1875596265266329 0 0
0.3751192530533701 0 0
0.5626788795798137 0 0
0.7502385061062573 0 0
0.9378605284906579 0 0
1.125482550874936 0 0
1.313104573259382 0 0
1.500726595643828 0 0
1.688089864337438 0 0
1.875453133031435 0 0
2.062816401725182 0 0
2.250179670418855 0 0
2.437634752814019 0 0
2.625089835209195 0 0
2.812544917604715 0 0
0.09377981326332853 0 0
0.2813394397900046 0 0
0.4688990663165948 0 0
0.6564586928430414 0 0
0.8440495172984396 0 0
1.031671539682791 0 0
1.219293562067179 0 0
1.406915584451569 0 0
1.594408229990584 0 0
1.781771498684411 0 0
1.969134767378338 0 0
2.156498036072019 0 0
2.343907211616475 0 0
2.531362294011698 0 0
2.718817376407063 0 0
2.906272458802324 0 0
1 2 0 31
36
37
38
39
40
41
42
43
44
45
46
47
48
49
50
51
52
53
54
55
56
57
58
59
60
61
62
63
64
65
66
2.996233864427401 0.1502751797817756 0
2.984944913550508 0.3001730552014134 0
2.966161491178699 0.4493172690299747 0
2.939930757919299 0.5973333563765327 0
2.904913248993156 0.7493190347402284 0
2.862044123528826 0.8992793976146202 0
2.811439251401529 1.046809120937916 0
2.753235411260298 1.191509450311804 0
2.694396019532338 1.319177808306482 0
2.62964054756257 1.443949649612072 0
2.559111178393083 1.565551013740391 0
2.482962773703576 1.683714899976313 0
2.406401121904819 1.791433403868318 0
2.325169725157383 1.895675539012818 0
2.230840914527642 2.005828710052151 0
2.999058318312884 0.07516118252327716 0
2.991528411498074 0.2252948361587792 0
2.976487503627331 0.3748628292460258 0
2.953973358759744 0.5234896328846254 0
2.923409871688729 0.6735538004590964 0
2.884453390478242 0.824577854516219 0
2.837700593109855 0.9733731781100086 0
2.78327784659408 1.119537595911196 0
2.724563607971243 1.255688315673409 0
2.662749208094512 1.381943072196554 0
2.595088214527961 1.505163499031942 0
2.521729190532866 1.625079041035991 0
2.445275167525014 1.737995786843431 0
2.366359498483326 1.844001823192629 0
2.278671030988267 1.951322201107462 0
2.182039679952279 2.058811024624105 0
1 3 0 31
67
68
69
70
71
72
73
74
75
76
77
78
79
80
81
82
83
84
85
86
87
88
89
90
91
92
93
94
95
96
97
2.005828346464742 2.230840588056107 0
1.895675202594168 2.325169372555377 0
1.791432975850585 2.406400834822644 0
1.683714374244311 2.482962543165541 0
1.565550539417566 2.559110898989993 0
1.443949230834775 2.629640223219075 0
1.319177447904138 2.694395655010808 0
1.191509150871934 2.753235011434448 0
1.046808861643091 2.811438829493805 0
0.8992791805850289 2.862043682435039 0
0.7493188610393611 2.904912792028476 0
0.597333227444204 2.939930288321662 0
0.4493171720222244 2.966161014463975 0
0.3001729904649511 2.984944431743299 0
0.1502751478084965 2.996233379553591 0
2.058811870455097 2.182038213889296 0
1.951321850892705 2.278670691220798 0
1.844001441869295 2.36635917966482 0
1.737995310661661 2.445274909886019 0
1.625078540481446 2.521728935089316 0
1.505163051956968 2.59508791215704 0
1.38194268243365 2.662748862973767 0
1.25568798545435 2.724563225176762 0
1.119537316168069 2.783277435418036 0
0.9733729395581489 2.837700161281302 0
0.8245776590658194 2.884452941021839 0
0.6735536490890115 2.923409407968524 0
0.523489519624428 2.953972885394073 0
0.3748627479725488 2.976487024158256 0
0.225294787844688 2.991527927894042 0
0.07516116637377324 2.999057832698352 0
1 4 0 31
98
99
100
101
102
103
104
105
106
107
108
109
110
111
112
113
114
115
116
117
118
119
120
121
122
123
124
125
126
127
128
0 2.812544917643536 0
0 2.625089835286658 0
0 2.437634752930222 0
0 2.250179670573992 0
0 2.062816402142412 0
0 1.875453133710829 0
0 1.688089865279903 0
0 1.500726596849023 0
0 1.313104574286609 0
0 1.125482551724246 0
0 0.9378605291619349 0
0 0.7502385065995312 0
0 0.5626788799495657 0
0 0.3751192532996068 0
0 0.1875596266497572 0
0 2.906272458821866 0
0 2.718817376465195 0
0 2.531362294108361 0
0 2.343907211752081 0
0 2.156498036358202 0
0 1.969134767926558 0
0 1.781771499495388 0
0 1.594408231064383 0
0 1.406915585567725 0
0 1.219293563005396 0
0 1.031671540443118 0
0 0.8440495178807446 0
0 0.6564586932745371 0
0 0.4688990666245392 0
0 0.2813394399746687 0
0 0.09377981332483376 0
2 1 0 705
129
130
131
132
133
134
135
136
137
138
139
140
141
142
143
144
145
146
147
148
149
150
151
152
153
154
155
156
157
158
159
160
161
162
163
164
165
166
167
168
169
170
171
172
173
174
175
176
177
178
179
180
181
182
183
184
185
186
187
188
189
190
191
192
193
194
195
196
197
198
199
200
201
202
203
204
205
206
207
208
209
210
211
212
213
214
215
216
217
218
219
220
221
222
223
224
225
226
227
228
229
230
231
232
233
234
235
236
237
238
239
240
241
242
243
244
245
246
247
248
249
250
251
252
253
254
255
256
257
258
259
260
261
262
263
264
265
266
267
268
269
270
271
272
273
274
275
276
277
278
279
280
281
282
283
284
285
286
287
288
289
290
291
292
293
294
295
296
297
298
299
300
301
302
303
304
305
306
307
308
309
310
311
312
313
314
315
316
317
318
319
320
321
322
323
324
325
326
327
328
329
330
331
332
333
334
335
336
337
338
339
340
341
342
343
344
345
346
347
348
349
350
351
352
353
354
355
356
357
358
359
360
361
362
363
364
365
366
367
368
369
370
371
372
373
374
375
376
377
378
379
380
381
382
383
384
385
386
387
388
389
390
391
392
393
394
395
396
397
398
399
400
401
402
403
404
405
406
407
408
409
410
411
412
413
414
415
416
417
418
419
420
421
422
423
424
425
426
427
428
429
430
431
432
433
434
435
436
437
438
439
440
441
442
443
444
445
446
447
448
449
450
451
452
453
454
455
456
457
458
459
460
461
462
463
464
465
466
467
468
469
470
471
472
473
474
475
476
477
478
479
480
481
482
483
484
485
486
487
488
489
490
491
492
493
494
495
496
497
498
499
500
501
502
503
504
505
506
507
508
509
510
511
512
513
514
515
516
517
518
519
520
521
522
523
524
525
526
527
528
529
530
531
532
533
534
535
536
537
538
539
540
541
542
543
544
545
546
547
548
549
550
551
552
553
554
555
556
557
558
559
560
561
562
563
564
565
566
567
568
569
570
571
572
573
574
575
576
577
578
579
580
581
582
583
584
585
586
587
588
589
590
591
592
593
594
595
596
597
598
599
600
601
602
603
604
605
606
607
608
609
610
611
612
613
614
615
616
617
618
619
620
621
622
623
624
625
626
627
628
629
630
631
632
633
634
635
636
637
638
639
640
641
642
643
644
645
646
647
648
649
650
651
652
653
654
655
656
657
658
659
660
661
662
663
664
665
666
667
668
669
670
671
672
673
674
675
676
677
678
679
680
681
682
683
684
685
686
687
688
689
690
691
692
693
694
695
696
697
698
699
700
701
702
703
704
705
706
707
708
709
710
711
712
713
714
715
716
717
718
719
720
721
722
723
724
725
726
727
728
729
730
731
732
733
734
735
736
737
738
739
740
741
742
743
744
745
746
747
748
749
750
751
752
753
754
755
756
757
758
759
760
761
762
763
764
765
766
767
768
769
770
771
772
773
774
775
776
777
778
779
780
781
782
783
784
785
786
787
788
789
790
791
792
793
794
795
796
797
798
799
800
801
802
803
804
805
806
807
808
809
810
811
812
813
814
815
816
817
818
819
820
821
822
823
824
825
826
827
828
829
830
831
832
833
0.1884668664208897 0.1884668379489202 0
0.1888995273596727 0.3769098735453062 0
0.1888593974200319 0.5653053641849264 0
0.1883494517423606 0.7536296866428649 0
0.1873045284541554 0.9423179484413745 0
0.1857642836901236 1.130878442632455 0
0.1837360271345271 1.319285599231929 0
0.1812283875074207 1.507514262704051 0
0.1786276229237242 1.694275050171466 0
0.1756536407238826 1.880853110050779 0
0.1723154105689174 2.0672311594757 0
0.168622701948984 2.253392354619947 0
0.1648757063712583 2.438900287753578 0
0.1608341185967418 2.624188913168522 0
0.1560098761534267 2.80997456506682 0
0.3769099303133683 0.1888995010337132 0
0.3777514496806444 0.3777513973630324 0
0.3776473873092355 0.5665082037805028 0
0.3766036934798139 0.7551226738373084 0
0.3744896423736227 0.944394610493023 0
0.3713849483348094 1.133411011938915 0
0.3673042307316169 1.322120738207453 0
0.3622647470038265 1.510473478228179 0
0.3570401159517244 1.696171202561451 0
0.3510690496817007 1.881503471726093 0
0.3443694875153886 2.06643571998827 0
0.3369609684327906 2.250934259698065 0
0.329444462108792 2.434046157919578 0
0.3213387714025432 2.616719440712199 0
0.3116668648983887 2.800368703834705 0
0.5653054492824658 0.1888593733722892 0
0.5665082821547532 0.3776473396881579 0
0.5662927424277127 0.5662926711370234 0
0.5646677555222984 0.7547244980461542 0
0.5614362285355443 0.9440993323414493 0
0.5567187371589803 1.133090863824459 0
0.5505372104448342 1.321622382544266 0
0.5429175345526263 1.509618421895743 0
0.5350228913566158 1.69379420661178 0
0.5260085953406684 1.877421808579101 0
0.5159015554869056 2.060449379195028 0
0.5047310802653188 2.24282638698732 0
0.4934000893824618 2.423095026925706 0
0.4811853219316859 2.602705743725083 0
0.4666189668599656 2.783753389013778 0
0.7536298000920727 0.1883494301040303 0
0.75512277830986 0.3766036507994676 0
0.7547245930676737 0.5646676916727129 0
0.7524471449267506 0.7524470598271263 0
0.7480257717138181 0.9414470399402657 0
0.7416231126538941 1.129935949638692 0
0.7332684064831911 1.317811508988089 0
0.7229961680809776 1.50497309584872 0
0.7123624390654315 1.687170952046445 0
0.7002358396280233 1.868637897915959 0
0.6866522484111697 2.049304801984456 0
0.6716507433750497 2.229104288958687 0
0.6564379483754084 2.406085261496251 0
0.6400467846222206 2.582189003184955 0
0.6205159510682029 2.760172729139666 0
0.942318089765501 0.1873045095652834 0
0.9443947396756245 0.3744896052967079 0
0.9440994488104972 0.5614361731141471 0
0.9414471431281553 0.7480256978499913 0
0.936109325305971 0.9361092370275664 0
0.9282865331347021 1.123551779918395 0
0.9180154385108374 1.31022504467272 0
0.9053393307909938 1.496002828685181 0
0.8922003778135169 1.675678472571725 0
0.8771890323637703 1.854437391889342 0
0.8603502942621115 2.032192880348803 0
0.8417331759858009 2.208860434308964 0
0.8228460218660595 2.382000304887092 0
0.8024809305112738 2.554039932327831 0
0.7781857667274348 2.72839003804291 0
1.13087861192751 0.1857642677602059 0
1.133411166018049 0.3713849172611036 0
1.13309100201747 0.5567186907561283 0
1.129936071280613 0.7416230508066771 0
1.123551883062276 0.9282864607211656 0
1.114179031992159 1.114178948476752 0
1.101861623127036 1.299146230308196 0
1.0866517203009 1.483036523144545 0
1.070883536052595 1.659709210790825 0
1.052863437281316 1.835279359627859 0
1.03264554498502 2.00964268854862 0
1.010288806158421 2.182697565565438 0
0.9876064347589081 2.351527798687717 0
0.963146557642562 2.519034776384085 0
0.9339613395903852 2.689263862627481 0
1.319285796564518 0.1837360143757726 0
1.322120917310532 0.3673042060666493 0
1.321622542649825 0.5505371736597577 0
1.317811649334039 0.733268357445521 0
1.310225162988781 0.9180153829327422 0
1.299146325289348 1.101861560389015 0
1.284626674452789 1.284626604133617 0
1.266727048790486 1.466133150630083 0
1.248180808482163 1.639329232672085 0
1.227003131600567 1.811236961665241 0
1.203257260320835 1.9817344816834 0
1.17701207615556 2.150703032393745 0
1.150389442075434 2.314762006965661 0
1.121689733796943 2.477274713823542 0
1.087463576394434 2.642902574145616 0
1.507514488216157 0.1812283781085659 0
1.510473682631296 0.3622647291064524 0
1.509618604323177 0.5429175079145483 0
1.504973255440254 0.7229961325522619 0
1.496002962841296 0.9053392929025703 0
1.483036630384818 1.086651679349671 0
1.466133229448149 1.266727004297294 0
1.445362372820106 1.445362323743478 0
1.423864836520497 1.614616525566884 0
1.399356341596817 1.782396560102088 0
1.371909251400907 1.948562996602471 0
1.341602381963759 2.112979946391388 0
1.310870644676641 2.271814203388918 0
1.277762264709152 2.428879180384135 0
1.238319529729442 2.589434099020256 0
1.69427530131135 0.178627617541782 0
1.696171428134541 0.3570401061276143 0
1.693794405694845 0.5350228768250034 0
1.687171123722098 0.7123624196652543 0
1.67567861389309 0.8922003608402915 0
1.659709320150153 1.070883520733649 0
1.639329308429231 1.248180794294864 0
1.614616566294276 1.423864822319617 0
1.589155455908793 1.589155455975198 0
1.560321153160981 1.752794572471661 0
1.528194727080565 1.914625966824512 0
1.492864475674624 2.074497402258733 0
1.457093219271234 2.228148801396323 0
1.418659397904259 2.379818067088753 0
1.373075122400347 2.535327093081884 0
1.880853386981663 0.1756536396685286 0
1.881503718788423 0.3510690485357632 0
1.8774220247935 0.5260085938159595 0
1.8686380823081 0.7002358375523662 0
1.854437541160733 0.8771890377874328 0
1.835279472043923 1.052863449362603 0
1.81123703545221 1.227003149773254 0
1.782396593724693 1.399356364612803 0
1.752794559515008 1.560321196607834 0
1.719457099205631 1.719457161573622 0
1.682473987503652 1.876591280286809 0
1.641943004392736 2.031554967875087 0
1.60095938291221 2.179670474538468 0
1.55702727418551 2.325590994314444 0
1.505121653236454 2.475686879501644 0
2.067231462374071 0.172315414142401 0
2.06643598888637 0.3443694956380346 0
2.060449613057858 0.515901567847977 0
2.049304999781125 0.6866522648274086 0
2.032193038424655 0.8603503235288527 0
2.009642805042914 1.032645586192124 0
1.981734554689039 1.203257312858416 0
1.948563024477305 1.371909313918912 0
1.914625942479739 1.528194816433111 0
1.876591200645123 1.68247410204828 0
1.834557279357367 1.834557417301188 0
1.788631440577296 1.984259829223245 0
1.742246259809891 2.126494893387773 0
1.692626669513643 2.266322117222706 0
1.63420289174952 2.410646439630098 0
2.253392683757123 0.1686227104046625 0
2.250934550964962 0.3369609863169406 0
2.242826639292198 0.5047311072447842 0
2.229104501212806 0.6716507792552764 0
2.208860602495938 0.8417332302980773 0
2.182697687697306 1.01028887792428 0
2.150703106428647 1.177012164720847 0
2.112979970579454 1.341602485876743 0
2.074497368808414 1.492864613014708 0
2.031554873462722 1.64194317338405 0
1.984259670602536 1.78863163928067 0
1.932728504166453 1.932728729640674 0
1.88073663703571 2.06874804241327 0
1.825224438093166 2.202146661413982 0
1.760069117802559 2.340350612257267 0
2.438900653328703 0.1648757136250094 0
2.434046492651662 0.3294444775678534 0
2.423095329416266 0.4934001126665918 0
2.406085530349692 0.6564379792410994 0
2.382000535597356 0.8228460706078298 0
2.351527988879845 0.9876065002637869 0
2.314762154205908 1.150389523564312 0
2.271814305568562 1.31087074050386 0
2.228148849440615 1.457093348353343 0
2.179670464684313 1.600959543245835 0
2.126494821959122 1.742246449206571 0
2.068747906395128 1.880736852225682 0
2.010558082308786 2.010558198760557 0
1.948569264932815 2.137551403351806 0
1.876090159019427 2.269644706726917 0
2.624189314798457 0.1608341240849657 0
2.616719818134724 0.3213387832978982 0
2.602706095234963 0.4811853398070418 0
2.582189327079555 0.6400468081850714 0
2.554040223595996 0.8024809707981774 0
2.51903503226396 0.9631466134063817 0
2.477274931489209 1.1216898041334 0
2.428879357368308 1.277762347779225 0
2.379818193034894 1.418659513465413 0
2.32559106501977 1.557027420006649 0
2.266322128581112 1.692626843156696 0
2.202146610041106 1.825224635960548 0
2.137551380548768 1.948569354360224 0
2.068878496289152 2.068878482644743 0
1.988859804208108 2.194571257430554 0
2.809974994979853 0.1560098852337932 0
2.800369107461362 0.311666883930949 0
2.783753764545749 0.4666189953910317 0
2.760173074770042 0.6205159887868399 0
2.728390348354619 0.7781858253780061 0
2.689264134682205 0.933961417845489 0
2.642902804933209 1.08746367328945 0
2.589434285918664 1.238319643307238 0
2.535327224895207 1.373075273529882 0
2.47568695174088 1.505121839533074 0
2.410646447909008 1.634203110606558 0
2.34035055296797 1.760069365382361 0
2.269644678531743 1.876090294727297 0
2.194571268778288 1.988859833802734 0
2.107284338324803 2.107284373477959 0
0.1880132464737613 0.09423341897446011 0
0.09423343321044483 0.1880132322993387 0
0.1886831968902812 0.2826883557471132 0
0.09444976367983635 0.3760145634224565 0
0.1888794623898523 0.4711076188651163 0
0.09442969871001596 0.563992122067246 0
0.1886044245811963 0.6594675254138956 0
0.0941747258711803 0.751934096621198 0
0.187826990098258 0.8479738175421196 0
0.09365226422707772 0.9400892388016546 0
0.1865344060721395 1.036598195536915 0
0.09288214184506179 1.12818049717835 0
0.1847501554123253 1.225082020932192 0
0.09186801356726354 1.316195086759269 0
0.1824822073209739 1.41339993096799 0
0.09061419375371037 1.504120429776537 0
0.1799280052155725 1.600894656437759 0
0.0893138114618621 1.691182457725685 0
0.1771406318238034 1.787564080111123 0
0.08782682036194128 1.878153121880804 0
0.1739845256464 1.97404213476324 0
0.08615770528445869 2.065023780809056 0
0.1704690562589507 2.160311757047824 0
0.08431135097449201 2.25178601259697 0
0.1667492041601211 2.346146321186763 0
0.08243785318562913 2.4382675203419 0
0.162854912484 2.53154460046105 0
0.08041705929837088 2.62463937422759 0
0.1584219973750842 2.71708173911767 0
0.07800493807671333 2.811259741355178 0
0.1531425119809616 2.903103972310205 0
0.3760145916833691 0.0944497505168566 0
0.282688398367129 0.1886831694913167 0
0.3773306899970064 0.2833254491983728 0
0.2833254885201585 0.3773306354541693 0
0.3776994184949399 0.4721298005717676 0
0.2832533923646337 0.5659067839827145 0
0.3771255403945247 0.6608154388089056 0
0.2824765726110872 0.7543761802400866 0
0.3755466679267183 0.8497586421651657 0
0.2808970854138891 0.9433562794671988 0
0.372937295354216 1.038902811215969 0
0.2785746160124665 1.132144727285685 0
0.3693445895332131 1.227765875073184 0
0.275520128933072 1.320703168719691 0
0.3647844888677217 1.416297108217816 0
0.2717465672556236 1.508993870466115 0
0.3596524314777755 1.603322340394815 0
0.2678338694377243 1.695223126366459 0
0.3540545828167125 1.788837337143772 0
0.2633613452027916 1.881178290888436 0
0.3477192685985446 1.973969595857181 0
0.258342449042153 2.066833439731985 0
0.3406652279740896 2.158684989843167 0
0.2527918351908873 2.252163307159006 0
0.3332027152707913 2.342490208808822 0
0.2471600842400251 2.436473222836578 0
0.3253916167556676 2.525382799315889 0
0.2410864449996425 2.620454176940361 0
0.316502818150466 2.708544072273452 0
0.2338383705259077 2.805171634450762 0
0.3059199276816699 2.892656567789002 0
0.5639921644311398 0.09442968668614458 0
0.4711076897979171 0.1888794372030012 0
0.5659068657186095 0.2832533565302235 0
0.4721298659176988 0.3776993685255952 0
0.566400512291233 0.4719700054125907 0
0.4719700648684741 0.5664004374587631 0
0.5654802489750055 0.6605085845915888 0
0.4706357245010562 0.7549235859417313 0
0.5630519920289214 0.8494119151938018 0
0.4679629354545835 0.9442469714172361 0
0.5590774828472623 1.038595098082954 0
0.4640518427468949 1.133250937881687 0
0.5536279738019072 1.227356623184363 0
0.4589207205882255 1.32187156037586 0
0.5467273724987303 1.415620402220005 0
0.4525911407782264 1.510045950061961 0
0.538970212954621 1.601706314253762 0
0.4460315036541701 1.694982704586616 0
0.530515743348642 1.785608007595441 0
0.4385388225111845 1.879462640152597 0
0.520955075413787 1.968935593887065 0
0.4301355215011471 2.063442549591649 0
0.5103163178761122 2.151637883091174 0
0.4208460243490547 2.246880323342693 0
0.4990655848238903 2.332960706956513 0
0.4114222757456269 2.428570592422642 0
0.4872927056570739 2.512900385325394 0
0.4012620466671146 2.609712592218641 0
0.4739021443958258 2.693229566369431 0
0.3891429158791772 2.792061046424242 0
0.457968069441095 2.874957201738876 0
0.751934153099165 0.09417471505201515 0
0.6594676246872693 0.1886044017381597 0
0.7543762892009663 0.2824765404517489 0
0.6608155302323067 0.3771254952438127 0
0.7549236856887669 0.4706356712360902 0
0.6605086677476932 0.5654801814048682 0
0.7535858689972121 0.6585573757499197 0
0.6585574502245245 0.7535857789366402 0
0.7502364583202843 0.846947049883696 0
0.6547310001246812 0.9427731861408575 0
0.7448244421838561 1.035691494789479 0
0.6491709249064372 1.131513406731576 0
0.7374457595685426 1.223873729313391 0
0.6419028084640126 1.319716945766177 0
0.7281322872820843 1.411392302418404 0
0.6329568513168019 1.507295758872231 0
0.7176793035732045 1.596072023947582 0
0.6236926652110237 1.690482579329113 0
0.7062991393467274 1.777904424981202 0
0.6131222174843458 1.87302985324753 0
0.6934440440195965 1.958971349950208 0
0.6012769019490376 2.054877090589742 0
0.6791514958931097 2.139204545471572 0
0.5881909118201842 2.235965337973004 0
0.664044345875229 2.317594775227469 0
0.574919018878935 2.414590144210979 0
0.6482423664988145 2.494137132340603 0
0.5606160532769533 2.592447373455019 0
0.6302813678452117 2.67118086616231 0
0.5435674589640842 2.771963059076722 0
0.6089245892562034 2.850051508730664 0
0.9400893091280795 0.09365225478264169 0
0.8479739449287869 0.1878269698346569 0
0.9433564147205628 0.2808970574309957 0
0.8497587589927422 0.3755466280480877 0
0.9442470942430609 0.4679628892054275 0
0.8494120209390854 0.56305193239343 0
0.9427732959693262 0.6547309354820692 0
0.846947144027453 0.7502363788385589 0
0.9387782342170632 0.8420674674387789 0
0.8420675485098945 0.938778138483916 0
0.9321979292203366 1.029830508472981 0
0.8349548228942981 1.126743864778544 0
0.9231509858227698 1.216888412295558 0
0.8256419224970143 1.314018276830405 0
0.9116773846509156 1.403113936678951 0
0.8141677494359857 1.50048796226695 0
0.8987698543022553 1.585840650628453 0
0.8022814084394743 1.681424712309085 0
0.8846947050886436 1.765057932230533 0
0.7887124359958968 1.86153764490265 0
0.8687696633129409 1.943315136119072 0
0.7735012713366406 2.040748841166629 0
0.8510417351239562 2.120526657328883 0
0.7566919596804254 2.218982361633826 0
0.8322895989259302 2.295430369598027 0
0.7396419851207339 2.394042783191671 0
0.8126634761886666 2.468020118607462 0
0.7212638575667472 2.568114467756393 0
0.7903333486193542 2.64121498518537 0
0.6993508588978188 2.744281383591288 0
0.7637523138833979 2.816651415035693 0
1.128180581401223 0.09288213388010297 0
1.036598350846505 0.1865343886627447 0
1.13214488897278 0.2785745925106548 0
1.038902952846837 0.3729372612789058 0
1.13325108401776 0.464051804008616 0
1.038595225413984 0.5590774319351377 0
1.131513536649042 0.6491708707814028 0
1.035691607204384 0.7448243743283343 0
1.126743977171444 0.8349547557639214 0
1.029830604184123 0.9321978488743661 0
1.118865457527217 1.021232704598959 0
1.021232782563431 1.118865364197574 0
1.108020327559598 1.206662589392474 0
1.009938530818937 1.304685637490458 0
1.094256671713968 1.39109137672637 0
0.9959955255459468 1.489519675914863 0
1.078767628176748 1.571372866967685 0
0.9815419569330559 1.667693841681275 0
1.061873486666955 1.747494285209342 0
0.965026234822543 1.844858375758601 0
1.042754491133168 1.92246102408824 0
0.9464979196235656 2.020917784448712 0
1.02146717557172 2.096170127057029 0
0.9260109910721109 2.195778999937201 0
0.9989476204586645 2.267112682126577 0
0.9052262283124838 2.366764051787404 0
0.975376496200735 2.435281287535901 0
0.8828137440769179 2.536537354355958 0
0.9485539486164736 2.604149319505782 0
0.85607355315891 2.708826950335195 0
0.916620260087707 2.77565377253126 0
1.31619518491195 0.09186800718788628 0
1.225082204246014 0.1847501410679893 0
1.320703356937525 0.2755201102212109 0
1.227766041664291 0.3693445616638764 0
1.321871729980179 0.4589206898632035 0
1.227356772333648 0.553627932207943 0
1.319717095991932 0.6419027655526394 0
1.223873860307326 0.7374457041260991 0
1.31401840616141 0.8256418701891316 0
1.216888523025528 0.9231509218269539 0
1.304685744139065 1.009938471660879 0
1.206662678640754 1.108020254432884 0
1.291886499871068 1.193244082261316 0
1.193244148789912 1.291886417220907 0
1.275676861621638 1.37537987738185 0
1.176689384545693 1.474584836887314 0
1.257453928636325 1.552731191651084 0
1.159532172267379 1.649519221731455 0
1.237591970041365 1.725283097168663 0
1.139933284440941 1.82325816064655 0
1.215130195960701 1.896485721674321 0
1.117951402652928 1.99568858511601 0
1.190134668238197 2.066218757038572 0
1.09365044115699 2.166700298979592 0
1.163700759115497 2.232732519679703 0
1.068997938417171 2.333144902826689 0
1.136039587936188 2.396018360394601 0
1.042418145719753 2.498154745103813 0
1.104576655095689 2.560088643984579 0
1.01071245799241 2.666083218386548 0
1.067136219018763 2.72717070181971 0
1.504120541929993 0.09061418905428295 0
1.413400142390338 0.1824821962421692 0
1.508994085423726 0.2717465536075091 0
1.416297299970914 0.3647844675865508 0
1.510046143477236 0.4525911185105003 0
1.415620573486501 0.546727340787153 0
1.507295929881715 0.632956820233405 0
1.411392452387147 0.7281322449988914 0
1.500488109140775 0.8141677127274161 0
1.403114062915038 0.9116773379176563 0
1.489519796613057 0.9959954861261205 0
1.391091477837083 1.094256619869343 0
1.474584929916483 1.176689341823482 0
1.375379951950469 1.275676804215455 0
1.455747801134128 1.356044664020386 0
1.356044710805296 1.455747737186781 0
1.434613604670302 1.529989424655181 0
1.33602282250133 1.626972879119485 0
1.411610589058657 1.698506542834486 0
1.313179736598692 1.796816760883664 0
1.385632796498862 1.865479778352279 0
1.287583255860871 1.965148739142935 0
1.356755816682333 2.030771471496929 0
1.259307229059659 2.131841489392567 0
1.3262365133202 2.192397074890153 0
1.230630043376038 2.29328810517729 0
1.294316454692897 2.350346691886526 0
1.199725999253048 2.453076947103838 0
1.258040897219297 2.509156639702195 0
1.162891553061938 2.616168336582936 0
1.214914340300688 2.671334555227352 0
1.691182582824394 0.08931380877089101 0
1.600894894763754 0.179927997825174 0
1.695223364722946 0.2678338618346982 0
1.603322555382918 0.3596524176170333 0
1.694982916914693 0.4460314914763088 0
1.601706505009011 0.5389701923697758 0
1.690482764708471 0.6236926482451288 0
1.596072189581176 0.717679276108758 0
1.681424868807594 0.8022813902527729 0
1.585840788367193 0.8987698268714309 0
1.667693967021621 0.9815419407869702 0
1.571372975267485 1.07876760004166 0
1.649519314289692 1.159532157514256 0
1.55273126893869 1.257453899296078 0
1.626972937361753 1.33602280830724 0
1.529989469557191 1.434613573031547 0
1.601886011101535 1.506510139147408 0
1.506510146214645 1.601885990771041 0
1.574738304534887 1.67097501422343 0
1.479838747378899 1.767595566286875 0
1.544257940120773 1.833710269648086 0
1.450051989240736 1.931594481713491 0
1.510529601377595 1.994561684541622 0
1.417233428819191 2.09373867432506 0
1.474978847472929 2.151323101827528 0
1.383981931973938 2.24998150239262 0
1.437876308587747 2.303983434242538 0
1.348210831306706 2.404348623736444 0
1.395867260152303 2.457572580085318 0
1.305697326064895 2.56238059605107 0
1.346126285152243 2.614861374046346 0
1.878153260006549 0.0878268198342643 0
1.787564344146507 0.1771406286051553 0
1.881178552885043 0.2633613441021458 0
1.788837573461482 0.3540545773316887 0
1.879462871790961 0.4385388211758613 0
1.785608215244173 0.5305157353204815 0
1.8730300535508 0.6131222156841629 0
1.777904603015099 0.7062991286088103 0
1.861537811734416 0.7887124376698995 0
1.765058077526911 0.8846946993138622 0
1.844858506602328 0.9650262435750177 0
1.747494396097038 1.061873485048126 0
1.823258253748067 1.139933299567928 0
1.72528317194072 1.237591972034059 0
1.796816814588452 1.313179757193029 0
1.698506580009485 1.41161059346621 0
1.767595576619851 1.479838780610319 0
1.6709750077119 1.574738326291516 0
1.736125829360319 1.639889179090728 0
1.639889126183306 1.736125867022642 0
1.700965543354642 1.798024220930215 0
1.605334357292109 1.89560862355566 0
1.662208495948194 1.954073124080948 0
1.56740374003368 2.05302618506691 0
1.621451193652473 2.105612721206777 0
1.529026301091722 2.203909637967395 0
1.57899332854886 2.252630734426456 0
1.487843336044885 2.352704530701598 0
1.531074463710982 2.400638936908044 0
1.439098387818401 2.505506986291764 0
1.474535442035615 2.552663551360359 0
2.065023932049626 0.08615770707120052 0
1.974042424677867 0.1739845269054648 0
2.06683372563022 0.2583424548902178 0
1.973969853837396 0.3477192720868989 0
2.063442800972114 0.4301355317430058 0
1.968935818925679 0.5209550808319683 0
2.054877306419491 0.6012769163376928 0
1.958971541044612 0.6934440511898874 0
2.04074901910289 0.7735012941781306 0
1.943315289792694 0.8687696806581428 0
2.020917921733785 0.9464979548604884 0
1.922461138543419 1.042754517777363 0
1.995688679865977 1.11795144952527 0
1.896485795070625 1.215130231315835 0
1.965148789583172 1.287583313388664 0
1.865479809100999 1.385632839265858 0
1.931594483478522 1.450052065176012 0
1.833710250997374 1.544258006520472 0
1.895608571562431 1.605334459240696 0
1.798024149925377 1.700965631810951 0
1.855574240001245 1.758515759674734 0
1.758515633430509 1.855574348793998 0
1.811594359967331 1.909408623262216 0
1.715287222485016 2.007907398549166 0
1.765438850193593 2.055377361305509 0
1.671602821361051 2.15308268396312 0
1.717436464661767 2.196408505305239 0
1.624826971849577 2.295956555768575 0
1.663414780631582 2.338484278426402 0
1.569662272492987 2.443166659565871 0
1.599876715583543 2.484878669310045 0
2.251786177087989 0.08431135520233123 0
2.160312073065596 0.1704690622735318 0
2.252163617361042 0.2527918483608015 0
2.158685269925666 0.3406652409774876 0
2.24688059512858 0.4208460467808624 0
2.151638126175028 0.5103163375463806 0
2.235965570252502 0.5881909432500303 0
2.139204750496965 0.6791515220413424 0
2.218982551854372 0.7566920047766769 0
2.120526820460296 0.8510417769134651 0
2.195779145096622 0.9260110541111787 0
2.09617024637011 1.021467232058202 0
2.166700397062977 1.093650521322564 0
2.066218830558843 1.190134738789632 0
2.131841538504051 1.259307325298795 0
2.03077149752838 1.356755899897828 0
2.093738669693934 1.417233549445726 0
1.994561655644077 1.51052971472391 0
2.053026121135568 1.567403893199379 0
1.954073037053923 1.662208637716165 0
2.007907272032629 1.71528740633236 0
1.909408474979951 1.811594528290929 0
1.958494087384495 1.860680184460672 0
1.860679972371875 1.958494279431959 0
1.906732570601082 2.000738386026972 0
1.8114914484228 2.097621467900522 0
1.852980537564438 2.135447351913626 0
1.758925553803405 2.234234389318344 0
1.792646777947863 2.271248636835625 0
1.69713600477604 2.375498525943682 0
1.721891746023435 2.411656577711404 0
2.438267703071361 0.08243785681250468 0
2.346146668542913 0.1667492120148359 0
2.436473572990183 0.2471600955964314 0
2.342490521808312 0.333202731942397 0
2.428570911033963 0.4114222951172226 0
2.332960984354232 0.499065609955688 0
2.414590429882979 0.5749190459538456 0
2.317595015781249 0.6640443792481878 0
2.394043032973524 0.7396420249244646 0
2.295430569046647 0.8322896504529536 0
2.366764262238601 0.9052262854358084 0
2.267112838288576 0.9989476890940334 0
2.333145071542877 1.068998011914049 0
2.232732630317277 1.163700844142579 0
2.293288229887235 1.230630132034086 0
2.192397138074008 1.326236613190301 0
2.249981577504588 1.383982044428602 0
2.151323109124514 1.474978980684026 0
2.203909657062464 1.529026445799589 0
2.105612669073518 1.621451358314943 0
2.153082643321718 1.671602996226203 0
2.055377246280829 1.765439044243621 0
2.097621364177125 1.811491650716127 0
2.000738205280791 1.906732790933178 0
2.039652994351957 1.94564752549312 0
1.945647359672248 2.039653120586914 0
1.9795636736208 2.074054801056182 0
1.88689685151299 2.169849032382894 0
1.91232971197612 2.203598055039361 0
1.818079638410993 2.304997659492092 0
1.833761567435006 2.33802277077478 0
2.624639575003826 0.08041706204248283 0
2.53154498406358 0.1628549188549875 0
2.620454566466591 0.2410864536914319 0
2.525383155393193 0.3253916304328758 0
2.609712956684843 0.40126206155247 0
2.512900712325615 0.4872927262368168 0
2.592447711157259 0.5606160739960566 0
2.494137428714623 0.6482423937130855 0
2.568114775337776 0.7212638894916243 0
2.468020379596676 0.8126635207030035 0
2.536537627929978 0.8828137921022796 0
2.435281510571903 0.9753765568350843 0
2.498154981876584 1.042418208769891 0
2.396018542847558 1.136039663848856 0
2.453077144428758 1.199726075956312 0
2.350346831468435 1.294316544141543 0
2.404348775201601 1.348210930622319 0
2.303983521237754 1.437876430909378 0
2.352704629027332 1.487843466736031 0
2.252630764852042 1.578993481626242 0
2.295956596800441 1.624827131581672 0
2.196408475270117 1.717436646181633 0
2.234234369311109 1.758925739558622 0
2.135447258218117 1.852980744093115 0
2.169848995294937 1.886896995160386 0
2.074054731428777 1.979563776560391 0
2.10321493841896 2.008723918502484 0
2.008723880610983 2.103214942998275 0
2.02886915024863 2.131724870037648 0
1.932474981613768 2.232107982078735 0
1.942267503401138 2.259870314992965 0
2.811259956292284 0.07800494261689662 0
2.717082154889155 0.1584220046593794 0
2.805172051220608 0.2338383845823711 0
2.708544462798043 0.3165028336144236 0
2.792061436003556 0.3891429396609903 0
2.693229929890356 0.4739021675990368 0
2.771963419657895 0.5435674920889358 0
2.671181200924798 0.6302813984859557 0
2.74428171156233 0.699350907082423 0
2.641215285975308 0.7903333980880918 0
2.708827241518412 0.8560736216117475 0
2.604149583473083 0.9485540156259353 0
2.666083469807707 1.01071254556747 0
2.560088868211209 1.104576738711425 0
2.616168545425936 1.162891658298344 0
2.509156821643486 1.258040995543232 0
2.562380755406935 1.30569745841856 0
2.45757270896505 1.395867393497647 0
2.505507088318043 1.439098556531478 0
2.400639008380325 1.531074629769861 0
2.443166699824944 1.569662475069816 0
2.33848428824506 1.663414976881627 0
2.375498500438489 1.69713623799446 0
2.271248581504538 1.792647000671455 0
2.304997615749857 1.818079830054829 0
2.203598029540256 1.912329824543761 0
2.232107973655016 1.932475064265016 0
2.13172488253372 2.028869158223739 0
2.150927803551546 2.048072103640346 0
2.048072071266456 2.150927815454256 0
2.056556342394773 2.169062480767033 0
2.903104429703627 0.1531425325077844 0
2.892657010505935 0.3059199695661812 0
2.874957627862224 0.4579681322105032 0
2.85005191634467 0.6089246725816864 0
2.816651798673887 0.7637524300591172 0
2.775654129105516 0.9166204077300546 0
2.727171028167369 1.067136397113683 0
2.671334848589481 1.214914546809521 0
2.614861622213772 1.346126540918182 0
2.552663749651725 1.474535744572573 0
2.484878813151045 1.599877062173475 0
2.411656663335773 1.721892132679337 0
2.338022900218281 1.833761849297807 0
2.259870496967836 1.942267686407776 0
2.169062626426222 2.056556541765055 0
$EndNodes
$Elements
9 324 1 324
0 1 15 1
1 1 
0 2 15 1
2 2 
0 3 15 1
3 3 
0 4 15 1
4 4 
1 1 8 16
5 1 5 20 
6 5 6 21 
7 6 7 22 
8 7 8 23 
9 8 9 24 
10 9 10 25 
11 10 11 26 
12 11 12 27 
13 12 13 28 
14 13 14 29 
15 14 15 30 
16 15 16 31 
17 16 17 32 
18 17 18 33 
19 18 19 34 
20 19 2 35 
1 2 8 16
21 2 36 51 
22 36 37 52 
23 37 38 53 
24 38 39 54 
25 39 40 55 
26 40 41 56 
27 41 42 57 
28 42 43 58 
29 43 44 59 
30 44 45 60 
31 45 46 61 
32 46 47 62 
33 47 48 63 
34 48 49 64 
35 49 50 65 
36 50 4 66 
1 3 8 16
37 4 67 82 
38 67 68 83 
39 68 69 84 
40 69 70 85 
41 70 71 86 
42 71 72 87 
43 72 73 88 
44 73 74 89 
45 74 75 90 
46 75 76 91 
47 76 77 92 
48 77 78 93 
49 78 79 94 
50 79 80 95 
51 80 81 96 
52 81 3 97 
1 4 8 16
53 3 98 113 
54 98 99 114 
55 99 100 115 
56 100 101 116 
57 101 102 117 
58 102 103 118 
59 103 104 119 
60 104 105 120 
61 105 106 121 
62 106 107 122 
63 107 108 123 
64 108 109 124 
65 109 110 125 
66 110 111 126 
67 111 112 127 
68 112 1 128 
2 1 16 256
69 1 5 129 112 20 354 355 128 
70 112 129 130 111 355 356 357 127 
71 111 130 131 110 357 358 359 126 
72 110 131 132 109 359 360 361 125 
73 109 132 133 108 361 362 363 124 
74 108 133 134 107 363 364 365 123 
75 107 134 135 106 365 366 367 122 
76 106 135 136 105 367 368 369 121 
77 105 136 137 104 369 370 371 120 
78 104 137 138 103 371 372 373 119 
79 103 138 139 102 373 374 375 118 
80 102 139 140 101 375 376 377 117 
81 101 140 141 100 377 378 379 116 
82 100 141 142 99 379 380 381 115 
83 99 142 143 98 381 382 383 114 
84 98 143 81 3 383 384 97 113 
85 5 6 144 129 21 385 386 354 
86 129 144 145 130 386 387 388 356 
87 130 145 146 131 388 389 390 358 
88 131 146 147 132 390 391 392 360 
89 132 147 148 133 392 393 394 362 
90 133 148 149 134 394 395 396 364 
91 134 149 150 135 396 397 398 366 
92 135 150 151 136 398 399 400 368 
93 136 151 152 137 400 401 402 370 
94 137 152 153 138 402 403 404 372 
95 138 153 154 139 404 405 406 374 
96 139 154 155 140 406 407 408 376 
97 140 155 156 141 408 409 410 378 
98 141 156 157 142 410 411 412 380 
99 142 157 158 143 412 413 414 382 
100 143 158 80 81 414 415 96 384 
101 6 7 159 144 22 416 417 385 
102 144 159 160 145 417 418 419 387 
103 145 160 161 146 419 420 421 389 
104 146 161 162 147 421 422 423 391 
105 147 162 163 148 423 424 425 393 
106 148 163 164 149 425 426 427 395 
107 149 164 165 150 427 428 429 397 
108 150 165 166 151 429 430 431 399 
109 151 166 167 152 431 432 433 401 
110 152 167 168 153 433 434 435 403 
111 153 168 169 154 435 436 437 405 
112 154 169 170 155 437 438 439 407 
113 155 170 171 156 439 440 441 409 
114 156 171 172 157 441 442 443 411 
115 157 172 173 158 443 444 445 413 
116 158 173 79 80 445 446 95 415 
117 7 8 174 159 23 447 448 416 
118 159 174 175 160 448 449 450 418 
119 160 175 176 161 450 451 452 420 
120 161 176 177 162 452 453 454 422 
121 162 177 178 163 454 455 456 424 
122 163 178 179 164 456 457 458 426 
123 164 179 180 165 458 459 460 428 
124 165 180 181 166 460 461 462 430 
125 166 181 182 167 462 463 464 432 
126 167 182 183 168 464 465 466 434 
127 168 183 184 169 466 467 468 436 
128 169 184 185 170 468 469 470 438 
129 170 185 186 171 470 471 472 440 
130 171 186 187 172 472 473 474 442 
131 172 187 188 173 474 475 476 444 
132 173 188 78 79 476 477 94 446 
133 8 9 189 174 24 478 479 447 
134 174 189 190 175 479 480 481 449 
135 175 190 191 176 481 482 483 451 
136 176 191 192 177 483 484 485 453 
137 177 192 193 178 485 486 487 455 
138 178 193 194 179 487 488 489 457 
139 179 194 195 180 489 490 491 459 
140 180 195 196 181 491 492 493 461 
141 181 196 197 182 493 494 495 463 
142 182 197 198 183 495 496 497 465 
143 183 198 199 184 497 498 499 467 
144 184 199 200 185 499 500 501 469 
145 185 200 201 186 501 502 503 471 
146 186 201 202 187 503 504 505 473 
147 187 202 203 188 505 506 507 475 
148 188 203 77 78 507 508 93 477 
149 9 10 204 189 25 509 510 478 
150 189 204 205 190 510 511 512 480 
151 190 205 206 191 512 513 514 482 
152 191 206 207 192 514 515 516 484 
153 192 207 208 193 516 517 518 486 
154 193 208 209 194 518 519 520 488 
155 194 209 210 195 520 521 522 490 
156 195 210 211 196 522 523 524 492 
157 196 211 212 197 524 525 526 494 
158 197 212 213 198 526 527 528 496 
159 198 213 214 199 528 529 530 498 
160 199 214 215 200 530 531 532 500 
161 200 215 216 201 532 533 534 502 
162 201 216 217 202 534 535 536 504 
163 202 217 218 203 536 537 538 506 
164 203 218 76 77 538 539 92 508 
165 10 11 219 204 26 540 541 509 
166 204 219 220 205 541 542 543 511 
167 205 220 221 206 543 544 545 513 
168 206 221 222 207 545 546 547 515 
169 207 222 223 208 547 548 549 517 
170 208 223 224 209 549 550 551 519 
171 209 224 225 210 551 552 553 521 
172 210 225 226 211 553 554 555 523 
173 211 226 227 212 555 556 557 525 
174 212 227 228 213 557 558 559 527 
175 213 228 229 214 559 560 561 529 
176 214 229 230 215 561 562 563 531 
177 215 230 231 216 563 564 565 533 
178 216 231 232 217 565 566 567 535 
179 217 232 233 218 567 568 569 537 
180 218 233 75 76 569 570 91 539 
181 11 12 234 219 27 571 572 540 
182 219 234 235 220 572 573 574 542 
183 220 235 236 221 574 575 576 544 
184 221 236 237 222 576 577 578 546 
185 222 237 238 223 578 579 580 548 
186 223 238 239 224 580 581 582 550 
187 224 239 240 225 582 583 584 552 
188 225 240 241 226 584 585 586 554 
189 226 241 242 227 586 587 588 556 
190 227 242 243 228 588 589 590 558 
191 228 243 244 229 590 591 592 560 
192 229 244 245 230 592 593 594 562 
193 230 245 246 231 594 595 596 564 
194 231 246 247 232 596 597 598 566 
195 232 247 248 233 598 599 600 568 
196 233 248 74 75 600 601 90 570 
197 12 13 249 234 28 602 603 571 
198 234 249 250 235 603 604 605 573 
199 235 250 251 236 605 606 607 575 
200 236 251 252 237 607 608 609 577 
201 237 252 253 238 609 610 611 579 
202 238 253 254 239 611 612 613 581 
203 239 254 255 240 613 614 615 583 
204 240 255 256 241 615 616 617 585 
205 241 256 257 242 617 618 619 587 
206 242 257 258 243 619 620 621 589 
207 243 258 259 244 621 622 623 591 
208 244 259 260 245 623 624 625 593 
209 245 260 261 246 625 626 627 595 
210 246 261 262 247 627 628 629 597 
211 247 262 263 248 629 630 631 599 
212 248 263 73 74 631 632 89 601 
213 13 14 264 249 29 633 634 602 
214 249 264 265 250 634 635 636 604 
215 250 265 266 251 636 637 638 606 
216 251 266 267 252 638 639 640 608 
217 252 267 268 253 640 641 642 610 
218 253 268 269 254 642 643 644 612 
219 254 269 270 255 644 645 646 614 
220 255 270 271 256 646 647 648 616 
221 256 271 272 257 648 649 650 618 
222 257 272 273 258 650 651 652 620 
223 258 273 274 259 652 653 654 622 
224 259 274 275 260 654 655 656 624 
225 260 275 276 261 656 657 658 626 
226 261 276 277 262 658 659 660 628 
227 262 277 278 263 660 661 662 630 
228 263 278 72 73 662 663 88 632 
229 14 15 279 264 30 664 665 633 
230 264 279 280 265 665 666 667 635 
231 265 280 281 266 667 668 669 637 
232 266 281 282 267 669 670 671 639 
233 267 282 283 268 671 672 673 641 
234 268 283 284 269 673 674 675 643 
235 269 284 285 270 675 676 677 645 
236 270 285 286 271 677 678 679 647 
237 271 286 287 272 679 680 681 649 
238 272 287 288 273 681 682 683 651 
239 273 288 289 274 683 684 685 653 
240 274 289 290 275 685 686 687 655 
241 275 290 291 276 687 688 689 657 
242 276 291 292 277 689 690 691 659 
243 277 292 293 278 691 692 693 661 
244 278 293 71 72 693 694 87 663 
245 15 16 294 279 31 695 696 664 
246 279 294 295 280 696 697 698 666 
247 280 295 296 281 698 699 700 668 
248 281 296 297 282 700 701 702 670 
249 282 297 298 283 702 703 704 672 
250 283 298 299 284 704 705 706 674 
251 284 299 300 285 706 707 708 676 
252 285 300 301 286 708 709 710 678 
253 286 301 302 287 710 711 712 680 
254 287 302 303 288 712 713 714 682 
255 288 303 304 289 714 715 716 684 
256 289 304 305 290 716 717 718 686 
257 290 305 306 291 718 719 720 688 
258 291 306 307 292 720 721 722 690 
259 292 307 308 293 722 723 724 692 
260 293 308 70 71 724 725 86 694 
261 16 17 309 294 32 726 727 695 
262 294 309 310 295 727 728 729 697 
263 295 310 311 296 729 730 731 699 
264 296 311 312 297 731 732 733 701 
265 297 312 313 298 733 734 735 703 
266 298 313 314 299 735 736 737 705 
267 299 314 315 300 737 738 739 707 
268 300 315 316 301 739 740 741 709 
269 301 316 317 302 741 742 743 711 
270 302 317 318 303 743 744 745 713 
271 303 318 319 304 745 746 747 715 
272 304 319 320 305 747 748 749 717 
273 305 320 321 306 749 750 751 719 
274 306 321 322 307 751 752 753 721 
275 307 322 323 308 753 754 755 723 
276 308 323 69 70 755 756 85 725 
277 17 18 324 309 33 757 758 726 
278 309 324 325 310 758 759 760 728 
279 310 325 326 311 760 761 762 730 
280 311 326 327 312 762 763 764 732 
281 312 327 328 313 764 765 766 734 
282 313 328 329 314 766 767 768 736 
283 314 329 330 315 768 769 770 738 
284 315 330 331 316 770 771 772 740 
285 316 331 332 317 772 773 774 742 
286 317 332 333 318 774 775 776 744 
287 318 333 334 319 776 777 778 746 
288 319 334 335 320 778 779 780 748 
289 320 335 336 321 780 781 782 750 
290 321 336 337 322 782 783 784 752 
291 322 337 338 323 784 785 786 754 
292 323 338 68 69 786 787 84 756 
293 18 19 339 324 34 788 789 757 
294 324 339 340 325 789 790 791 759 
295 325 340 341 326 791 792 793 761 
296 326 341 342 327 793 794 795 763 
297 327 342 343 328 795 796 797 765 
298 328 343 344 329 797 798 799 767 
299 329 344 345 330 799 800 801 769 
300 330 345 346 331 801 802 803 771 
301 331 346 347 332 803 804 805 773 
302 332 347 348 333 805 806 807 775 
303 333 348 349 334 807 808 809 777 
304 334 349 350 335 809 810 811 779 
305 335 350 351 336 811 812 813 781 
306 336 351 352 337 813 814 815 783 
307 337 352 353 338 815 816 817 785 
308 338 353 67 68 817 818 83 787 
309 19 2 36 339 35 51 819 788 
310 339 36 37 340 819 52 820 790 
311 340 37 38 341 820 53 821 792 
312 341 38 39 342 821 54 822 794 
313 342 39 40 343 822 55 823 796 
314 343 40 41 344 823 56 824 798 
315 344 41 42 345 824 57 825 800 
316 345 42 43 346 825 58 826 802 
317 346 43 44 347 826 59 827 804 
318 347 44 45 348 827 60 828 806 
319 348 45 46 349 828 61 829 808 
320 349 46 47 350 829 62 830 810 
321 350 47 48 351 830 63 831 812 
322 351 48 49 352 831 64 832 814 
323 352 49 50 353 832 65 833 816 
324 353 50 4 67 833 66 82 818 
$EndElements
