$MeshFormat
4.1 0 8
$EndMeshFormat
$Entities
4 4 1 0
1 0 0 0 0 
2 3 0 0 0 
3 0 3 0 0 
4 2.12132 2.12132 0 0 
1 0 0 0 3 0 0 0 2 1 -2 
2 2.121320343559643 0 0 3 2.121320343559642 0 0 2 2 -4 
3 2.220446049250313e-16 2.12132 0 2.12132 2.999999514133294 0 0 2 4 -3 
4 0 0 0 0 3 0 0 2 3 -1 
1 0 0 0 3 3 0 0 4 1 2 3 4 
$EndEntities
$Nodes
9 225 1 225
0 1 0 1
1
0 0 0
0 2 0 1
2
3 0 0
0 3 0 1
3
0 3 0
0 4 0 1
4
2.12132 2.12132 0
1 1 0 15
5
6
7
8
9
10
11
12
13
14
15
16
17
18
19
0.3751192530533701 0 0
0.7502385061062573 0 0
1.125482550874936 0 0
1.500726595643828 0 0
1.875453133031435 0 0
2.250179670418855 0 0
2.625089835209195 0 0
0.1875596265266329 0 0
0.5626788795798137 0 0
0.9378605284906579 0 0
1.313104573259382 0 0
1.688089864337438 0 0
2.062816401725182 0 0
2.437634752814019 0 0
2.812544917604715 0 0
1 2 0 15
20
21
22
23
24
25
26
27
28
29
30
31
32
33
34
2.984944913550508 0.3001730552014134 0
2.939930757919299 0.5973333563765327 0
2.862044123528826 0.8992793976146202 0
2.753235411260298 1.191509450311804 0
2.62964054756257 1.443949649612072 0
2.482962773703576 1.683714899976313 0
2.325169725157383 1.895675539012818 0
2.996233864427401 0.1502751797817756 0
2.966161491178699 0.4493172690299747 0
2.904913248993156 0.7493190347402284 0
2.811439251401529 1.046809120937916 0
2.694396019532338 1.319177808306482 0
2.559111178393083 1.565551013740391 0
2.406401121904819 1.791433403868318 0
2.235892309604208 2.000196385321391 0
1 3 0 15
35
36
37
38
39
40
41
42
43
44
45
46
47
48
49
1.895675202594168 2.325169372555377 0
1.683714374244311 2.482962543165541 0
1.443949230834775 2.629640223219075 0
1.191509150871934 2.753235011434448 0
0.8992791805850289 2.862043682435039 0
0.597333227444204 2.939930288321662 0
0.3001729904649511 2.984944431743299 0
2.000196628151191 2.235891440462307 0
1.791432975850585 2.406400834822644 0
1.565550539417566 2.559110898989993 0
1.319177447904138 2.694395655010808 0
1.046808861643091 2.811438829493805 0
0.7493188610393611 2.904912792028476 0
0.4493171720222244 2.966161014463975 0
0.1502751478084965 2.996233379553591 0
1 4 0 15
50
51
52
53
54
55
56
57
58
59
60
61
62
63
64
0 2.625089835286658 0
0 2.250179670573992 0
0 1.875453133710829 0
0 1.500726596849023 0
0 1.125482551724246 0
0 0.7502385065995312 0
0 0.3751192532996068 0
0 2.812544917643536 0
0 2.437634752930222 0
0 2.062816402142412 0
0 1.688089865279903 0
0 1.313104574286609 0
0 0.9378605291619349 0
0 0.5626788799495657 0
0 0.1875596266497572 0
2 1 0 161
65
66
67
68
69
70
71
72
73
74
75
76
77
78
79
80
81
82
83
84
85
86
87
88
89
90
91
92
93
94
95
96
97
98
99
100
101
102
103
104
105
106
107
108
109
110
111
112
113
114
115
116
117
118
119
120
121
122
123
124
125
126
127
128
129
130
131
132
133
134
135
136
137
138
139
140
141
142
143
144
145
146
147
148
149
150
151
152
153
154
155
156
157
158
159
160
161
162
163
164
165
166
167
168
169
170
171
172
173
174
175
176
177
178
179
180
181
182
183
184
185
186
187
188
189
190
191
192
193
194
195
196
197
198
199
200
201
202
203
204
205
206
207
208
209
210
211
212
213
214
215
216
217
218
219
220
221
222
223
224
225
0.377751349340526 0.3777512969208073 0
0.3766035156065919 0.7551224752463828 0
0.3713846527302252 1.133410540045998 0
0.3622643572080085 1.510472740429787 0
0.3510687421609649 1.881502932096627 0
0.3369607607595211 2.250933927886613 0
0.3213387467473152 2.61671953384195 0
0.7551225797106453 0.3766034726912975 0
0.7524467934104124 0.7524467082046802 0
0.7416225332458035 1.129935127394982 0
0.7229954079316403 1.50497181779885 0
0.7002352381851203 1.868636957766483 0
0.6716503358357904 2.229103706036577 0
0.6400467312669809 2.582189151225781 0
1.133410693993961 0.3713846213414421 0
1.129935249005062 0.7416224712130892 0
1.114177793175401 1.114177709609551 0
1.086650190629841 1.483034664495664 0
1.052862183906608 1.835277944190368 0
1.010287922903627 2.182696644858352 0
0.963146319704121 2.519034872634625 0
1.510472944595451 0.3622643389682962 0
1.504971977231724 0.7229953721735265 0
1.48303477165693 1.086650149563815 0
1.445360137796171 1.445360088719263 0
1.399354481496255 1.782394813248985 0
1.341601049236485 2.112978771420456 0
1.277761829820545 2.428879185485343 0
1.881503178896357 0.3510687406808887 0
1.868637141931396 0.7002352358617494 0
1.835278056432181 1.052862195824638 0
1.782394846766481 1.399354504438545 0
1.719455667304522 1.719455729703887 0
1.641941994959583 2.031554023289745 0
1.55702700097305 2.325591052922887 0
2.250934218887427 0.3369607783571934 0
2.229103918009435 0.6716503714764702 0
2.182696766728047 1.010287994471124 0
2.112978795398131 1.341601153002586 0
2.03155392873428 1.641942163896439 0
1.932727852262682 1.93272807778829 0
1.8252243104236 2.202146744148679 0
2.616719911045451 0.3213387584267722 0
2.58218947481623 0.6400467546129225 0
2.519035128176212 0.9631463752405793 0
2.428879362147155 1.277761912668543 0
2.325591123351276 1.557027146644865 0
2.202146692581649 1.825224508234923 0
2.068878661985711 2.068878648429681 0
0.376435301196948 0.1888756484604037 0
0.188875674670263 0.3764352751102071 0
0.3771774324735589 0.5664368860835951 0
0.188301757803296 0.752680490922957 0
0.3739940841684086 0.9442665076461902 0
0.1856923263651126 1.129446545885122 0
0.3668245049691168 1.321941640237893 0
0.1811321786040042 1.505599668639405 0
0.3566665496844867 1.695987836263207 0
0.1755343710804824 1.878478032903728 0
0.344014751460243 2.06621842999162 0
0.1684803803797605 2.250556799230303 0
0.3291497537534182 2.433826730864282 0
0.1606693733736576 2.620904684564304 0
0.3107558686061331 2.800831982792625 0
0.7526805429084513 0.1883017363456487 0
0.5664369645255857 0.3771773848060524 0
0.7537846865605289 0.5645250904479888 0
0.5645251545085022 0.7537845917255315 0
0.747034663328108 0.9411909177998311 0
0.5565035929880143 1.13167283372049 0
0.7323089705887219 1.317453472596916 0
0.5426298825698244 1.507722279114319 0
0.7116153230583804 1.686804387782667 0
0.5256519901730426 1.875069944931555 0
0.6859427870104553 2.04887033190153 0
0.5043055482976557 2.240018816961595 0
0.6558485335513856 2.405646428631179 0
0.480692739007148 2.599454342533866 0
0.6186899793555924 2.761059719773721 0
1.129446622434449 0.1856923106707211 0
0.9442666368523033 0.3739940470163698 0
1.131672971499512 0.5565035462772656 0
0.9411910212077372 0.7470345897088847 0
1.122056521090232 0.9279000904113199 0
0.9279001632106023 1.122056418502266 0
1.100413991902621 1.298606187052607 0
0.9048227992807407 1.494003241147257 0
1.069756187268225 1.659156304343016 0
0.8765487110458643 1.851957450978425 0
1.031575053405117 2.00898729452436 0
0.8409691293697085 2.205900175447464 0
0.9867171213038738 2.350865758746489 0
0.8015965254855509 2.550612011930203 0
0.9312127501445749 2.690539277534832 0
1.50559977011964 0.1811321694841481 0
1.321941819294706 0.3668244801548692 0
1.507722460913588 0.5426298555709114 0
1.317453613118393 0.7323089216933079 0
1.494003374444327 0.9048227608686709 0
1.298606282416166 1.100413929586683 0
1.464197454726551 1.266005119141539 0
1.266005164213006 1.464197376607463 0
1.422357309646213 1.613877450984124 0
1.226108332701431 1.808836378719676 0
1.37047776536637 1.94768679233472 0
1.175944486070056 2.147837708139404 0
1.309681439528515 2.2709289784529 0
1.120454074762333 2.473957029059984 0
1.23463549034624 2.591057098459896 0
1.878478155963896 0.1755343703404443 0
1.695988061745904 0.3566665398245925 0
1.875070160413876 0.5256519882713191 0
1.68680455958156 0.711615304017638 0
1.851957599181789 0.8765487158431937 0
1.659156414044556 1.069756172694227 0
1.808836451599331 1.226108350131592 0
1.613877492281326 1.422357296578904 0
1.750925257035502 1.559405117071216 0
1.559405074400388 1.750925271476436 0
1.680698831132053 1.875504876496816 0
1.491771522098034 2.0722663973551 0
1.599484497966317 2.178572538106316 0
1.417394415396798 2.377235119204115 0
1.500488115903913 2.477615638070981 0
2.250556944653141 0.1684803891785967 0
2.066218698891892 0.344014759519041 0
2.240019068448431 0.5043055749168318 0
2.048870529970416 0.6859428036691098 0
2.205900342368741 0.8409691829737971 0
2.008987411580114 1.031575095147881 0
2.147837781063089 1.175944573736855 0
1.947686821082306 1.370477828720565 0
2.072266362066206 1.491771658449512 0
1.875504798019401 1.680698946800163 0
1.982140890498481 1.787335120842364 0
1.787334923611133 1.982141050539017 0
1.878976081343141 2.067437410968484 0
1.691125655698325 2.263868898535783 0
1.754469342333956 2.34255464365711 0
2.620904873127323 0.1606693792133861 0
2.433827064966439 0.3291497683919828 0
2.59945469293084 0.4806927565198473 0
2.405646696412832 0.6558485630446964 0
2.550612301496221 0.8015965649267509 0
2.350865947452129 0.9867171848558517 0
2.473957245161683 1.120454143954561 0
2.270929078772643 1.309681532835564 0
2.377235242749216 1.417394529656704 0
2.178572526042778 1.599484655270652 0
2.263868907966462 1.691125827439894 0
2.067437272422166 1.878976293011606 0
2.13551267728368 1.947051578332302 0
1.947051486204656 2.13551269628918 0
1.98227693228994 2.197024010492528 0
2.80083241229798 0.3107559068140928 0
2.761060116367765 0.6186900554947277 0
2.690539625852518 0.9312128864275997 0
2.591057386703727 1.234635681490174 0
2.477615835456923 1.500488398128469 0
2.342554733142613 1.754469704105618 0
2.197024193571547 1.982277093721249 0
$EndNodes
$Elements
9 100 1 100
0 1 15 1
1 1 
0 2 15 1
2 2 
0 3 15 1
3 3 
0 4 15 1
4 4 
1 1 8 8
5 1 5 12 
6 5 6 13 
7 6 7 14 
8 7 8 15 
9 8 9 16 
10 9 10 17 
11 10 11 18 
12 11 2 19 
1 2 8 8
13 2 20 27 
14 20 21 28 
15 21 22 29 
16 22 23 30 
17 23 24 31 
18 24 25 32 
19 25 26 33 
20 26 4 34 
1 3 8 8
21 4 35 42 
22 35 36 43 
23 36 37 44 
24 37 38 45 
25 38 39 46 
26 39 40 47 
27 40 41 48 
28 41 3 49 
1 4 8 8
29 3 50 57 
30 50 51 58 
31 51 52 59 
32 52 53 60 
33 53 54 61 
34 54 55 62 
35 55 56 63 
36 56 1 64 
2 1 16 64
37 1 5 65 56 12 114 115 64 
38 56 65 66 55 115 116 117 63 
39 55 66 67 54 117 118 119 62 
40 54 67 68 53 119 120 121 61 
41 53 68 69 52 121 122 123 60 
42 52 69 70 51 123 124 125 59 
43 51 70 71 50 125 126 127 58 
44 50 71 41 3 127 128 49 57 
45 5 6 72 65 13 129 130 114 
46 65 72 73 66 130 131 132 116 
47 66 73 74 67 132 133 134 118 
48 67 74 75 68 134 135 136 120 
49 68 75 76 69 136 137 138 122 
50 69 76 77 70 138 139 140 124 
51 70 77 78 71 140 141 142 126 
52 71 78 40 41 142 143 48 128 
53 6 7 79 72 14 144 145 129 
54 72 79 80 73 145 146 147 131 
55 73 80 81 74 147 148 149 133 
56 74 81 82 75 149 150 151 135 
57 75 82 83 76 151 152 153 137 
58 76 83 84 77 153 154 155 139 
59 77 84 85 78 155 156 157 141 
60 78 85 39 40 157 158 47 143 
61 7 8 86 79 15 159 160 144 
62 79 86 87 80 160 161 162 146 
63 80 87 88 81 162 163 164 148 
64 81 88 89 82 164 165 166 150 
65 82 89 90 83 166 167 168 152 
66 83 90 91 84 168 169 170 154 
67 84 91 92 85 170 171 172 156 
68 85 92 38 39 172 173 46 158 
69 8 9 93 86 16 174 175 159 
70 86 93 94 87 175 176 177 161 
71 87 94 95 88 177 178 179 163 
72 88 95 96 89 179 180 181 165 
73 89 96 97 90 181 182 183 167 
74 90 97 98 91 183 184 185 169 
75 91 98 99 92 185 186 187 171 
76 92 99 37 38 187 188 45 173 
77 9 10 100 93 17 189 190 174 
78 93 100 101 94 190 191 192 176 
79 94 101 102 95 192 193 194 178 
80 95 102 103 96 194 195 196 180 
81 96 103 104 97 196 197 198 182 
82 97 104 105 98 198 199 200 184 
83 98 105 106 99 200 201 202 186 
84 99 106 36 37 202 203 44 188 
85 10 11 107 100 18 204 205 189 
86 100 107 108 101 205 206 207 191 
87 101 108 109 102 207 208 209 193 
88 102 109 110 103 209 210 211 195 
89 103 110 111 104 211 212 213 197 
90 104 111 112 105 213 214 215 199 
91 105 112 113 106 215 216 217 201 
92 106 113 35 36 217 218 43 203 
93 11 2 20 107 19 27 219 204 
94 107 20 21 108 219 28 220 206 
95 108 21 22 109 220 29 221 208 
96 109 22 23 110 221 30 222 210 
97 110 23 24 111 222 31 223 212 
98 111 24 25 112 223 32 224 214 
99 112 25 26 113 224 33 225 216 
100 113 26 4 35 225 34 42 218 
$EndElements
