$MeshFormat
4.1 0 8
$EndMeshFormat
$Entities
4 4 1 0
1 0 0 0 0 
2 3 0 0 0 
3 0 3 0 0 
4 2.12132 2.12132 0 0 
1 0 0 0 3 0 0 0 2 1 -2 
2 2.121320343559643 0 0 3 2.121320343559642 0 0 2 2 -4 
3 2.220446049250313e-16 2.12132 0 2.12132 2.999999514133294 0 0 2 4 -3 
4 0 0 0 0 3 0 0 2 3 -1 
1 0 0 0 3 3 0 0 4 1 2 3 4 
$EndEntities
$Nodes
9 65 1 65
0 1 0 1
1
0 0 0
0 2 0 1
2
3 0 0
0 3 0 1
3
0 3 0
0 4 0 1
4
2.12132 2.12132 0
1 1 0 7
5
6
7
8
9
10
11
0.7502385061062573 0 0
1.500726595643828 0 0
2.250179670418855 0 0
0.3751192530533701 0 0
1.125482550874936 0 0
1.875453133031435 0 0
2.625089835209195 0 0
1 2 0 7
12
13
14
15
16
17
18
2.939930757919299 0.5973333563765327 0
2.753235411260298 1.191509450311804 0
2.482962773703576 1.683714899976313 0
2.984944913550508 0.3001730552014134 0
2.862044123528826 0.8992793976146202 0
2.62964054756257 1.443949649612072 0
2.332089605766084 1.887156080105138 0
1 3 0 7
19
20
21
22
23
24
25
1.683714374244311 2.482962543165541 0
1.191509150871934 2.753235011434448 0
0.597333227444204 2.939930288321662 0
1.887156188408327 2.332088893106812 0
1.443949230834775 2.629640223219075 0
0.8992791805850289 2.862043682435039 0
0.3001729904649511 2.984944431743299 0
1 4 0 7
26
27
28
29
30
31
32
0 2.250179670573992 0
0 1.500726596849023 0
0 0.7502385065995312 0
0 2.625089835286658 0
0 1.875453133710829 0
0 1.125482551724246 0
0 0.3751192532996068 0
2 1 0 33
33
34
35
36
37
38
39
40
41
42
43
44
45
46
47
48
49
50
51
52
53
54
55
56
57
58
59
60
61
62
63
64
65
0.7524452596727453 0.7524451742459872 0
0.7229921798279594 1.504966449542808 0
0.6716485115221658 2.229101054378269 0
1.504966608676977 0.7229921436057113 0
1.445350822378286 1.445350773287168 0
1.341595329386566 2.112973634445758 0
2.229101265840153 0.6716485466950427 0
2.112973658063098 1.341595432879494 0
1.932724846886934 1.932725072493933 0
0.7513418828895013 0.3762225871229936 0
0.3762226298363727 0.7513418404227592 0
0.7377187197503523 1.128705811894398 0
0.3614960899139797 1.502846523195915 0
0.6973203456750625 1.867033751960539 0
0.3358242557610829 2.239640362476131 0
0.6344908694831849 2.584515671349966 0
1.502846602160403 0.3614960718028556 0
1.128705934174861 0.7377186589258493 0
1.475158715527632 1.084171458446439 0
1.084171501103123 1.475158611414988 0
1.393473075882426 1.779162203866463 0
1.006621920454366 2.171037344412014 0
1.26655224012925 2.433104322940103 0
2.239640468129505 0.3358242733475214 0
1.867033937258565 0.697320345150377 0
2.171037461951626 1.006621989787268 0
1.779162240220692 1.393473103083331 0
2.022849252475016 1.637160252686714 0
1.63716008813675 2.022849353469845 0
1.808219610565622 2.207843807829737 0
2.584516011879726 0.6344909515357877 0
2.433104534661698 1.266552441595649 0
2.207843810295255 1.808219986235123 0
$EndNodes
$Elements
9 36 1 36
0 1 15 1
1 1 
0 2 15 1
2 2 
0 3 15 1
3 3 
0 4 15 1
4 4 
1 1 8 4
5 1 5 8 
6 5 6 9 
7 6 7 10 
8 7 2 11 
1 2 8 4
9 2 12 15 
10 12 13 16 
11 13 14 17 
12 14 4 18 
1 3 8 4
13 4 19 22 
14 19 20 23 
15 20 21 24 
16 21 3 25 
1 4 8 4
17 3 26 29 
18 26 27 30 
19 27 28 31 
20 28 1 32 
2 1 16 16
21 1 5 33 28 8 42 43 32 
22 28 33 34 27 43 44 45 31 
23 27 34 35 26 45 46 47 30 
24 26 35 21 3 47 48 25 29 
25 5 6 36 33 9 49 50 42 
26 33 36 37 34 50 51 52 44 
27 34 37 38 35 52 53 54 46 
28 35 38 20 21 54 55 24 48 
29 6 7 39 36 10 56 57 49 
30 36 39 40 37 57 58 59 51 
31 37 40 41 38 59 60 61 53 
32 38 41 19 20 61 62 23 55 
33 7 2 12 39 11 15 63 56 
34 39 12 13 40 63 16 64 58 
35 40 13 14 41 64 17 65 60 
36 41 14 4 19 65 18 22 62 
$EndElements
