$MeshFormat
4.1 0 8
$EndMeshFormat
$Entities
4 4 1 0
1 0 0 0 0 
2 3 0 0 0 
3 0 3 0 0 
4 2.12132 2.12132 0 0 
1 0 0 0 3 0 0 0 2 1 -2 
2 2.121320343559643 0 0 3 2.121320343559642 0 0 2 2 -4 
3 2.220446049250313e-16 2.12132 0 2.12132 2.999999514133294 0 0 2 4 -3 
4 0 0 0 0 3 0 0 2 3 -1 
1 0 0 0 3 3 0 0 4 1 2 3 4 
$EndEntities
$Nodes
9 21 1 21
0 1 0 1
1
0 0 0
0 2 0 1
2
3 0 0
0 3 0 1
3
0 3 0
0 4 0 1
4
2.12132 2.12132 0
1 1 0 3
5
6
7
1.500559318464427 0 0
0.7498338000418203 0 0
2.24926247367431 0 0
1 2 0 3
8
9
10
2.761874825973939 1.171344289972604 0
2.942515032478362 0.5844700878906152 0
2.523115009290183 1.622926569470906 0
1 3 0 3
11
12
13
1.171344042255547 2.761874403276231 0
1.622926523287358 2.523114461297864 0
0.5844699895330652 2.942514556656469 0
1 4 0 3
14
15
16
0 1.500559319295339 0
0 2.249262472466853 0
0 0.7498338003406553 0
2 1 0 5
17
18
19
20
21
1.432860915714535 1.43286079073942 0
1.464951941702227 0.7140040569030653 0
0.7140041189841189 1.464951877135809 0
1.288052356620698 2.096879233311715 0
2.096879525821928 1.288052388159689 0
$EndNodes
$Elements
9 16 1 16
0 1 15 1
1 1 
0 2 15 1
2 2 
0 3 15 1
3 3 
0 4 15 1
4 4 
1 1 8 2
5 1 5 6 
6 5 2 7 
1 2 8 2
7 2 8 9 
8 8 4 10 
1 3 8 2
9 4 11 12 
10 11 3 13 
1 4 8 2
11 3 14 15 
12 14 1 16 
2 1 16 4
13 1 5 17 14 6 18 19 16 
14 14 17 11 3 19 20 13 15 
15 5 2 8 17 7 9 21 18 
16 17 8 4 11 21 10 12 20 
$EndElements
