$MeshFormat
4.1 0 8
$EndMeshFormat
$Entities
4 4 1 0
1 0 0 0 0 
2 1 0 0 0 
3 1 2 0 0 
4 0 2 0 0 
1 0 0 0 1 0 0 0 2 1 -2 
2 1 0 0 1 2 0 0 2 2 -3 
3 0 2 0 1 2 0 0 2 3 -4 
4 0 0 0 0 2 0 0 2 4 -1 
1 0 0 0 1 2 0 0 4 1 2 3 4 
$EndEntities
$Nodes
9 21 1 21
0 1 0 1
1
0 0 -0
0 2 0 1
2
1 0 -0
0 3 0 1
3
1 2 -0
0 4 0 1
4
0 2 -0
1 1 0 3
5
6
7
0.4999999999986921 0 0
0.2499999999994184 0 0
0.7499999999993461 0 0
1 2 0 3
8
9
10
1 0.9999999999973842 0
1 0.4999999999988369 0
1 1.499999999998692 0
1 3 0 3
11
12
13
0.5000000000020595 2 0
0.7500000000007599 2 0
0.2500000000010297 2 0
1 4 0 3
14
15
16
0 1.000000000004119 0
0 1.50000000000152 0
0 0.5000000000020595 0
2 1 0 5
17
18
19
20
21
0.5000000000003758 1.000000000000752 0
0.4999999999995339 0.5000000000003758 0
0.2500000000001879 1.000000000002435 0
0.5000000000012177 1.500000000000376 0
0.7500000000001878 0.9999999999990679 0
$EndNodes
$Elements
9 16 1 16
0 1 15 1
1 1 
0 2 15 1
2 2 
0 3 15 1
3 3 
0 4 15 1
4 4 
1 1 8 2
5 1 5 6 
6 5 2 7 
1 2 8 2
7 2 8 9 
8 8 3 10 
1 3 8 2
9 3 11 12 
10 11 4 13 
1 4 8 2
11 4 14 15 
12 14 1 16 
2 1 16 4
13 1 5 17 14 6 18 19 16 
14 14 17 11 4 19 20 13 15 
15 5 2 8 17 7 9 21 18 
16 17 8 3 11 21 10 12 20 
$EndElements
