$MeshFormat
4.1 0 8
$EndMeshFormat
$Entities
4 4 1 0
1 0 0.9659258262890683 0 0 
2 0.2588190451025207 0 0 0 
3 0 -0.9659258262890683 0 0 
4 -0.2588190451025207 0 0 0 
1 0 0 0 0.2588190451025207 0.9659258262890683 0 0 2 1 -2 
2 0 -0.9659258262890683 0 0.2588190451025207 0 0 0 2 2 -3 
3 -0.2588190451025207 -0.9659258262890683 0 0 0 0 0 2 3 -4 
4 -0.2588190451025207 0 0 0 0.9659258262890683 0 0 2 4 -1 
1 -0.2588190451025207 -0.9659258262890683 0 0.2588190451025207 0.9659258262890683 0 1 1 4 1 2 3 4 
$EndEntities
$Nodes
9 40 1 40
0 1 0 1
1
0 0.9659258262890683 0
0 2 0 1
2
0.2588190451025207 0 0
0 3 0 1
3
0 -0.9659258262890683 0
0 4 0 1
4
-0.2588190451025207 0 0
1 1 0 5
5
6
7
8
9
0.08627301503394755 0.6439505508602225 0
0.172546030068109 0.3219752754305781 0
0.04313650751695453 0.8049381885747172 0
0.1294095225509073 0.4829629131458519 0
0.2156825375853265 0.1609876377152456 0
1 2 0 5
10
11
12
13
14
0.1725460300685585 -0.3219752754289007 0
0.08627301503440221 -0.6439505508585256 0
0.2156825375855393 -0.1609876377144513 0
0.1294095225516002 -0.4829629131432659 0
0.04313650751720099 -0.8049381885737974 0
1 3 0 5
15
16
17
18
19
-0.08627301503394755 -0.6439505508602225 0
-0.172546030068109 -0.3219752754305781 0
-0.04313650751695453 -0.8049381885747172 0
-0.1294095225509073 -0.4829629131458519 0
-0.2156825375853265 -0.1609876377152456 0
1 4 0 5
20
21
22
23
24
-0.1725460300685585 0.3219752754289007 0
-0.08627301503440221 0.6439505508585256 0
-0.2156825375855393 0.1609876377144513 0
-0.1294095225516002 0.4829629131432659 0
-0.04313650751720099 0.8049381885737974 0
2 1 0 16
25
26
27
28
29
30
31
32
33
34
35
36
37
38
39
40
-1.532940441251185e-13 0.3219752754296497 -0
-0.08627301503415485 -5.526967772340186e-13 0
0.08627301503415485 5.526690216584029e-13 0
1.532871052312146e-13 -0.3219752754296497 0
0.04313650751689713 0.4829629131449361 0
-0.04313650751727775 0.4829629131440876 -0
-0.04313650751715407 0.1609876377145485 -0
-0.1294095225513567 0.160987637714174 -0
-0.1294095225511319 -0.1609876377155654 0
0.1294095225511319 0.1609876377155654 0
0.04313650751700078 0.1609876377151012 0
0.04313650751715407 -0.1609876377145485 0
-0.04313650751700079 -0.1609876377151012 0
-0.04313650751689713 -0.4829629131449361 0
0.1294095225513567 -0.160987637714174 0
0.04313650751727775 -0.4829629131440876 0
$EndNodes
$Elements
1 9 1 9
2 1 16 9
1 1 5 25 21 7 29 30 24 
2 21 25 26 20 30 31 32 23 
3 20 26 16 4 32 33 19 22 
4 5 6 27 25 8 34 35 29 
5 25 27 28 26 35 36 37 31 
6 26 28 15 16 37 38 18 33 
7 6 2 10 27 9 12 39 34 
8 27 10 11 28 39 13 40 36 
9 28 11 3 15 40 14 17 38 
$EndElements
