$MeshFormat
4.1 0 8
$EndMeshFormat
$Entities
4 4 1 0
1 0 0.9659258262890683 0 0 
2 0.2588190451025207 0 0 0 
3 0 -0.9659258262890683 0 0 
4 -0.2588190451025207 0 0 0 
1 0 0 0 0.2588190451025207 0.9659258262890683 0 0 2 1 -2 
2 0 -0.9659258262890683 0 0.2588190451025207 0 0 0 2 2 -3 
3 -0.2588190451025207 -0.9659258262890683 0 0 0 0 0 2 3 -4 
4 -0.2588190451025207 0 0 0 0.9659258262890683 0 0 2 4 -1 
1 -0.2588190451025207 -0.9659258262890683 0 0.2588190451025207 0.9659258262890683 0 1 1 4 1 2 3 4 
$EndEntities
$Nodes
9 225 1 225
0 1 0 1
1
0 0.9659258262890683 0
0 2 0 1
2
0.2588190451025207 0 0
0 3 0 1
3
0 -0.9659258262890683 0
0 4 0 1
4
-0.2588190451025207 0 0
1 1 0 15
5
6
7
8
9
10
11
12
13
14
15
16
17
18
19
0.0323523806377408 0.8451850980032121 0
0.06470476127545723 0.7244443697174467 0
0.09705714191319272 0.6037036414316103 0
0.1294095225508987 0.482962913145884 0
0.1617619031888112 0.3622221848593868 0
0.1941142838267051 0.2414814565729591 0
0.226466664464599 0.1207407282865314 0
0.01617619031885606 0.9055554621461938 0
0.04852857095659426 0.7848147338603471 0
0.08088095159432498 0.6640740055745284 0
0.1132333322320488 0.5433332772887355 0
0.145585712869863 0.4225925490026056 0
0.177938093507743 0.3018518207162296 0
0.2102904741456524 0.181111092429744 0
0.242642854783554 0.06037036414328745 0
1 2 0 15
20
21
22
23
24
25
26
27
28
29
30
31
32
33
34
0.2264666644647638 -0.1207407282859166 0
0.1941142838270444 -0.2414814565716928 0
0.1617619031893151 -0.3622221848575062 0
0.1294095225516078 -0.4829629131432374 0
0.09705714191369885 -0.6037036414297213 0
0.06470476127580857 -0.7244443697161355 0
0.03235238063791826 -0.8451850980025498 0
0.2426428547836455 -0.06037036414294618 0
0.2102904741459044 -0.1811110924288035 0
0.1779380935081896 -0.3018518207145626 0
0.1455857128704577 -0.4225925490003861 0
0.1132333322326468 -0.5433332772865036 0
0.08088095159475933 -0.6640740055729074 0
0.04852857095686319 -0.7848147338593435 0
0.01617619031896553 -0.9055554621457851 0
1 3 0 15
35
36
37
38
39
40
41
42
43
44
45
46
47
48
49
-0.0323523806377408 -0.8451850980032121 0
-0.06470476127545723 -0.7244443697174467 0
-0.09705714191319272 -0.6037036414316103 0
-0.1294095225508987 -0.482962913145884 0
-0.1617619031888112 -0.3622221848593868 0
-0.1941142838267051 -0.2414814565729591 0
-0.226466664464599 -0.1207407282865314 0
-0.01617619031885606 -0.9055554621461938 0
-0.04852857095659426 -0.7848147338603471 0
-0.08088095159432498 -0.6640740055745284 0
-0.1132333322320488 -0.5433332772887355 0
-0.145585712869863 -0.4225925490026056 0
-0.177938093507743 -0.3018518207162296 0
-0.2102904741456524 -0.181111092429744 0
-0.242642854783554 -0.06037036414328745 0
1 4 0 15
50
51
52
53
54
55
56
57
58
59
60
61
62
63
64
-0.2264666644647638 0.1207407282859166 0
-0.1941142838270444 0.2414814565716928 0
-0.1617619031893151 0.3622221848575062 0
-0.1294095225516078 0.4829629131432374 0
-0.09705714191369885 0.6037036414297213 0
-0.06470476127580857 0.7244443697161355 0
-0.03235238063791826 0.8451850980025498 0
-0.2426428547836455 0.06037036414294618 0
-0.2102904741459044 0.1811110924288035 0
-0.1779380935081896 0.3018518207145626 0
-0.1455857128704577 0.4225925490003861 0
-0.1132333322326468 0.5433332772865036 0
-0.08088095159475933 0.6640740055729074 0
-0.04852857095686319 0.7848147338593435 0
-0.01617619031896553 0.9055554621457851 0
2 1 0 161
65
66
67
68
69
70
71
72
73
74
75
76
77
78
79
80
81
82
83
84
85
86
87
88
89
90
91
92
93
94
95
96
97
98
99
100
101
102
103
104
105
106
107
108
109
110
111
112
113
114
115
116
117
118
119
120
121
122
123
124
125
126
127
128
129
130
131
132
133
134
135
136
137
138
139
140
141
142
143
144
145
146
147
148
149
150
151
152
153
154
155
156
157
158
159
160
161
162
163
164
165
166
167
168
169
170
171
172
173
174
175
176
177
178
179
180
181
182
183
184
185
186
187
188
189
190
191
192
193
194
195
196
197
198
199
200
201
202
203
204
205
206
207
208
209
210
211
212
213
214
215
216
217
218
219
220
221
222
223
224
225
-1.346874001217913e-13 0.7244443697166846 -0
-0.03235238063798103 0.6037036414302654 -0
-0.06470476127582858 0.482962913143842 -0
-0.09705714191368972 0.3622221848573678 -0
-0.1294095225513996 0.2414814565714581 -0
-0.1617619031891264 0.1207407282854852 -0
-0.1941142838268445 -4.551775623085064e-13 0
0.03235238063762408 0.6037036414309117 0
-1.786765180256111e-13 0.4829629131444894 -0
-0.03235238063798393 0.3622221848580583 -0
-0.06470476127579769 0.2414814565715955 -0
-0.09705714191351056 0.1207407282855089 -0
-0.1294095225512353 -6.218914272437814e-13 0
-0.1617619031889526 -0.1207407282867248 0
0.06470476127539955 0.4829629131450764 0
0.03235238063763795 0.3622221848586603 0
-1.273703365001211e-13 0.2414814565722302 -0
-0.0323523806378961 0.1207407282857875 -0
-0.06470476127561443 -4.670153153085721e-13 0
-0.0970571419133395 -0.1207407282867468 0
-0.1294095225510584 -0.2414814565730034 0
0.09705714191315147 0.362222184859329 0
0.06470476127543709 0.2414814565728962 0
0.03235238063771771 0.120740728286445 0
0 0 0
-0.03235238063771772 -0.120740728286445 0
-0.06470476127543709 -0.2414814565728962 0
-0.09705714191315148 -0.3622221848593291 0
0.1294095225510583 0.2414814565730034 0
0.09705714191333951 0.1207407282867468 0
0.06470476127561442 4.670153153085721e-13 0
0.03235238063789611 -0.1207407282857875 0
1.273703365001211e-13 -0.2414814565722302 0
-0.03235238063763795 -0.3622221848586603 0
-0.06470476127539951 -0.4829629131450763 0
0.1617619031889527 0.1207407282867248 0
0.1294095225512354 6.218636716681658e-13 0
0.09705714191351056 -0.1207407282855089 0
0.06470476127579769 -0.2414814565715955 0
0.03235238063798394 -0.3622221848580584 0
1.78683456919515e-13 -0.4829629131444895 0
-0.03235238063762409 -0.6037036414309115 0
0.1941142838268445 4.551636845206986e-13 0
0.1617619031891264 -0.1207407282854852 0
0.1294095225513995 -0.2414814565714581 0
0.09705714191368969 -0.3622221848573678 0
0.06470476127582857 -0.482962913143842 0
0.03235238063798104 -0.6037036414302653 0
1.346839306748393e-13 -0.7244443697166845 0
0.01617619031880305 0.7848147338599483 0
-0.01617619031902648 0.7848147338596172 -0
-0.01617619031905786 0.6640740055734751 -0
-0.0485285709568948 0.6640740055732004 -0
-0.04852857095690481 0.5433332772870537 -0
-0.08088095159476372 0.5433332772867816 -0
-0.08088095159475915 0.4225925490006049 -0
-0.1132333322326488 0.4225925490003026 -0
-0.1132333322325447 0.301851820714413 -0
-0.1455857128703573 0.3018518207144822 -0
-0.145585712870263 0.1811110924284717 -0
-0.1779380935080854 0.181111092428589 -0
-0.1779380935079855 0.06037036414251502 -0
-0.2102904741458042 0.0603703641427307 -0
-0.2102904741457218 -0.06037036414349328 0
0.04852857095654065 0.6640740055741792 0
0.0161761903187447 0.6640740055737981 0
0.0161761903187227 0.5433332772877005 0
-0.01617619031907985 0.5433332772873775 -0
-0.0161761903190813 0.4225925490012739 -0
-0.04852857095690626 0.4225925490009502 -0
-0.04852857095689081 0.301851820714827 -0
-0.08088095159474371 0.3018518207144817 -0
-0.08088095159465412 0.1811110924285522 -0
-0.1132333322324551 0.1811110924284835 -0
-0.1132333322323729 0.06037036414244353 -0
-0.1455857128701809 0.06037036414243167 -0
-0.1455857128700939 -0.06037036414367335 0
-0.1779380935078986 -0.06037036414359 0
-0.1779380935078289 -0.1811110924298419 0
0.08088095159429613 0.5433332772883434 0
0.04852857095651181 0.5433332772879941 0
0.04852857095651875 0.4225925490018684 0
0.01617619031872964 0.4225925490015748 0
0.01617619031875529 0.3018518207154453 0
-0.01617619031905565 0.3018518207151443 -0
-0.01617619031901174 0.1811110924290089 -0
-0.0485285709568469 0.1811110924286915 -0
-0.04852857095675527 0.06037036414266024 -0
-0.08088095159456249 0.06037036414252096 -0
-0.08088095159447697 -0.06037036414360691 0
-0.1132333322322874 -0.06037036414368435 0
-0.1132333322321989 -0.1811110924298751 0
-0.1455857128700055 -0.1811110924298641 0
-0.1455857128699348 -0.3018518207161952 0
0.1132333322320251 0.4225925490026065 0
0.08088095159427551 0.4225925490022027 0
0.08088095159429429 0.3018518207161126 0
0.04852857095653752 0.3018518207157783 0
0.0485285709565774 0.1811110924296706 0
0.01617619031879517 0.1811110924293377 0
0.01617619031885886 0.06037036414322251 0
-0.01617619031894805 0.06037036414289375 -0
-0.01617619031885886 -0.06037036414322251 0
-0.04852857095666607 -0.06037036414345602 0
-0.04852857095657741 -0.1811110924296706 0
-0.0808809515943883 -0.1811110924298215 0
-0.08088095159429429 -0.3018518207161126 0
-0.1132333322321049 -0.3018518207161662 0
-0.1132333322320251 -0.4225925490026065 0
0.1455857128699348 0.3018518207161951 0
0.1132333322321049 0.3018518207161662 0
0.1132333322321989 0.1811110924298751 0
0.0808809515943883 0.1811110924298215 0
0.08088095159447697 0.0603703641436069 0
0.04852857095666607 0.06037036414345602 0
0.04852857095675527 -0.06037036414266025 0
0.01617619031894806 -0.06037036414289376 0
0.01617619031901174 -0.1811110924290089 0
-0.01617619031879517 -0.1811110924293377 0
-0.01617619031875529 -0.3018518207154453 0
-0.04852857095653752 -0.3018518207157782 0
-0.04852857095651873 -0.4225925490018683 0
-0.0808809515942755 -0.4225925490022027 0
-0.08088095159429612 -0.5433332772883432 0
0.1779380935078289 0.1811110924298419 0
0.1455857128700055 0.1811110924298641 0
0.145585712870094 0.06037036414367334 0
0.1132333322322875 0.06037036414368432 0
0.113233332232373 -0.06037036414244354 0
0.08088095159456249 -0.06037036414252096 0
0.08088095159465412 -0.1811110924285522 0
0.0485285709568469 -0.1811110924286915 0
0.04852857095689081 -0.301851820714827 0
0.01617619031905565 -0.3018518207151443 0
0.01617619031908131 -0.422592549001274 0
-0.01617619031872963 -0.4225925490015749 0
-0.0161761903187227 -0.5433332772877005 0
-0.0485285709565118 -0.543333277287994 0
-0.04852857095654066 -0.6640740055741792 0
0.2102904741457218 0.06037036414349327 0
0.1779380935078986 0.06037036414358999 0
0.1779380935079855 -0.06037036414251504 0
0.1455857128701809 -0.06037036414243169 0
0.145585712870263 -0.1811110924284717 0
0.113233332232455 -0.1811110924284835 0
0.1132333322325446 -0.301851820714413 0
0.08088095159474369 -0.3018518207144816 0
0.08088095159475914 -0.4225925490006049 0
0.04852857095690626 -0.4225925490009502 0
0.0485285709569048 -0.5433332772870536 0
0.01617619031907986 -0.5433332772873775 0
0.01617619031905786 -0.6640740055734748 0
-0.0161761903187447 -0.6640740055737979 0
-0.01617619031880306 -0.7848147338599483 0
0.2102904741458042 -0.06037036414273071 0
0.1779380935080854 -0.181111092428589 0
0.1455857128703573 -0.3018518207144822 0
0.1132333322326488 -0.4225925490003026 0
0.08088095159476372 -0.5433332772867816 0
0.04852857095689481 -0.6640740055732004 0
0.01617619031902647 -0.7848147338596172 0
$EndNodes
$Elements
1 64 1 64
2 1 16 64
1 1 5 65 56 12 114 115 64 
2 56 65 66 55 115 116 117 63 
3 55 66 67 54 117 118 119 62 
4 54 67 68 53 119 120 121 61 
5 53 68 69 52 121 122 123 60 
6 52 69 70 51 123 124 125 59 
7 51 70 71 50 125 126 127 58 
8 50 71 41 4 127 128 49 57 
9 5 6 72 65 13 129 130 114 
10 65 72 73 66 130 131 132 116 
11 66 73 74 67 132 133 134 118 
12 67 74 75 68 134 135 136 120 
13 68 75 76 69 136 137 138 122 
14 69 76 77 70 138 139 140 124 
15 70 77 78 71 140 141 142 126 
16 71 78 40 41 142 143 48 128 
17 6 7 79 72 14 144 145 129 
18 72 79 80 73 145 146 147 131 
19 73 80 81 74 147 148 149 133 
20 74 81 82 75 149 150 151 135 
21 75 82 83 76 151 152 153 137 
22 76 83 84 77 153 154 155 139 
23 77 84 85 78 155 156 157 141 
24 78 85 39 40 157 158 47 143 
25 7 8 86 79 15 159 160 144 
26 79 86 87 80 160 161 162 146 
27 80 87 88 81 162 163 164 148 
28 81 88 89 82 164 165 166 150 
29 82 89 90 83 166 167 168 152 
30 83 90 91 84 168 169 170 154 
31 84 91 92 85 170 171 172 156 
32 85 92 38 39 172 173 46 158 
33 8 9 93 86 16 174 175 159 
34 86 93 94 87 175 176 177 161 
35 87 94 95 88 177 178 179 163 
36 88 95 96 89 179 180 181 165 
37 89 96 97 90 181 182 183 167 
38 90 97 98 91 183 184 185 169 
39 91 98 99 92 185 186 187 171 
40 92 99 37 38 187 188 45 173 
41 9 10 100 93 17 189 190 174 
42 93 100 101 94 190 191 192 176 
43 94 101 102 95 192 193 194 178 
44 95 102 103 96 194 195 196 180 
45 96 103 104 97 196 197 198 182 
46 97 104 105 98 198 199 200 184 
47 98 105 106 99 200 201 202 186 
48 99 106 36 37 202 203 44 188 
49 10 11 107 100 18 204 205 189 
50 100 107 108 101 205 206 207 191 
51 101 108 109 102 207 208 209 193 
52 102 109 110 103 209 210 211 195 
53 103 110 111 104 211 212 213 197 
54 104 111 112 105 213 214 215 199 
55 105 112 113 106 215 216 217 201 
56 106 113 35 36 217 218 43 203 
57 11 2 20 107 19 27 219 204 
58 107 20 21 108 219 28 220 206 
59 108 21 22 109 220 29 221 208 
60 109 22 23 110 221 30 222 210 
61 110 23 24 111 222 31 223 212 
62 111 24 25 112 223 32 224 214 
63 112 25 26 113 224 33 225 216 
64 113 26 3 35 225 34 42 218 
$EndElements
