$MeshFormat
4.1 0 8
$EndMeshFormat
$Entities
4 4 1 0
1 0 0.9659258262890683 0 0 
2 0.2588190451025207 0 0 0 
3 0 -0.9659258262890683 0 0 
4 -0.2588190451025207 0 0 0 
1 0 0 0 0.2588190451025207 0.9659258262890683 0 0 2 1 -2 
2 0 -0.9659258262890683 0 0.2588190451025207 0 0 0 2 2 -3 
3 -0.2588190451025207 -0.9659258262890683 0 0 0 0 0 2 3 -4 
4 -0.2588190451025207 0 0 0 0.9659258262890683 0 0 2 4 -1 
1 -0.2588190451025207 -0.9659258262890683 0 0.2588190451025207 0.9659258262890683 0 1 1 4 1 2 3 4 
$EndEntities
$Nodes
9 736 1 736
0 1 0 1
1
0 0.9659258262890683 0
0 2 0 1
2
0.2588190451025207 0 0
0 3 0 1
3
0 -0.9659258262890683 0
0 4 0 1
4
-0.2588190451025207 0 0
1 1 0 29
5
6
7
8
9
10
11
12
13
14
15
16
17
18
19
20
21
22
23
24
25
26
27
28
29
30
31
32
33
0.01725460300679126 0.9015307712032926 0
0.03450920601358794 0.8371357161174966 0
0.05176380902036441 0.7727406610317762 0
0.06901841202716182 0.7083456059459775 0
0.08627301503394756 0.6439505508602223 0
0.1035276180407333 0.5795554957744673 0
0.1207822210475082 0.5151604406887529 0
0.1380368240543448 0.4507653856028078 0
0.1552914270612323 0.3863703305166729 0
0.1725460300681091 0.321975275430578 0
0.1898006330749859 0.257580220344483 0
0.2070552360818628 0.1931851652583878 0
0.2243098390887396 0.1287901101722926 0
0.2415644420956272 0.06439505508615762 0
0.00862730150339398 0.9337282987461866 0
0.02588190451019169 0.8693332436603869 0
0.04313650751697791 0.80493818857463 0
0.06039111052376447 0.7405431334888718 0
0.07764571353055863 0.6761480784030853 0
0.09490031653733694 0.6117530233173579 0
0.112154919544125 0.5473579682315941 0
0.1294095225509017 0.4829629131458728 0
0.1466641255577885 0.4185678580597403 0
0.1639187285646668 0.35417280297364 0
0.1811733315715475 0.2897777478875305 0
0.1984279345784277 0.2253826928014228 0
0.2156825375853054 0.1609876377153245 0
0.23293714059218 0.09659258262923787 0
0.2501917435990756 0.03219752754307259 0
1 2 0 29
34
35
36
37
38
39
40
41
42
43
44
45
46
47
48
49
50
51
52
53
54
55
56
57
58
59
60
61
62
0.2415644420957203 -0.06439505508580982 0
0.2243098390889159 -0.1287901101716347 0
0.2070552360821337 -0.1931851652573766 0
0.1898006330753474 -0.2575802203431338 0
0.1725460300685585 -0.3219752754289007 0
0.1552914270617693 -0.3863703305146686 0
0.1380368240549966 -0.4507653856003753 0
0.1207822210481627 -0.5151604406863102 0
0.1035276180412771 -0.5795554957724379 0
0.08627301503440221 -0.6439505508585256 0
0.06901841202752729 -0.7083456059446136 0
0.05176380902065233 -0.7727406610307017 0
0.03450920601377738 -0.8371357161167897 0
0.01725460300689177 -0.9015307712029175 0
0.250191743599119 -0.03219752754291071 0
0.2329371405923172 -0.0965925826287258 0
0.2156825375855252 -0.160987637714504 0
0.1984279345787411 -0.2253826928002532 0
0.1811733315719547 -0.2897777478860107 0
0.1639187285651547 -0.354172802971819 0
0.1466641255583878 -0.4185678580575039 0
0.1294095225516101 -0.482962913143229 0
0.1121549195447201 -0.5473579682293732 0
0.09490031653783865 -0.6117530233154855 0
0.0776457135309665 -0.6761480784015631 0
0.06039111052408669 -0.7405431334876692 0
0.04313650751721795 -0.8049381885737341 0
0.02588190451033204 -0.8693332436598631 0
0.008627301503441542 -0.9337282987460092 0
1 3 0 29
63
64
65
66
67
68
69
70
71
72
73
74
75
76
77
78
79
80
81
82
83
84
85
86
87
88
89
90
91
-0.01725460300679126 -0.9015307712032926 0
-0.03450920601358794 -0.8371357161174966 0
-0.05176380902036441 -0.7727406610317762 0
-0.06901841202716182 -0.7083456059459775 0
-0.08627301503394756 -0.6439505508602223 0
-0.1035276180407333 -0.5795554957744673 0
-0.1207822210475082 -0.5151604406887529 0
-0.1380368240543448 -0.4507653856028078 0
-0.1552914270612323 -0.3863703305166729 0
-0.1725460300681091 -0.321975275430578 0
-0.1898006330749859 -0.257580220344483 0
-0.2070552360818628 -0.1931851652583878 0
-0.2243098390887396 -0.1287901101722926 0
-0.2415644420956272 -0.06439505508615762 0
-0.00862730150339398 -0.9337282987461866 0
-0.02588190451019169 -0.8693332436603869 0
-0.04313650751697791 -0.80493818857463 0
-0.06039111052376447 -0.7405431334888718 0
-0.07764571353055863 -0.6761480784030853 0
-0.09490031653733694 -0.6117530233173579 0
-0.112154919544125 -0.5473579682315941 0
-0.1294095225509017 -0.4829629131458728 0
-0.1466641255577885 -0.4185678580597403 0
-0.1639187285646668 -0.35417280297364 0
-0.1811733315715475 -0.2897777478875305 0
-0.1984279345784277 -0.2253826928014228 0
-0.2156825375853054 -0.1609876377153245 0
-0.23293714059218 -0.09659258262923787 0
-0.2501917435990756 -0.03219752754307259 0
1 4 0 29
92
93
94
95
96
97
98
99
100
101
102
103
104
105
106
107
108
109
110
111
112
113
114
115
116
117
118
119
120
-0.2415644420957203 0.06439505508580982 0
-0.2243098390889159 0.1287901101716347 0
-0.2070552360821337 0.1931851652573766 0
-0.1898006330753474 0.2575802203431338 0
-0.1725460300685585 0.3219752754289007 0
-0.1552914270617693 0.3863703305146686 0
-0.1380368240549966 0.4507653856003753 0
-0.1207822210481627 0.5151604406863102 0
-0.1035276180412771 0.5795554957724379 0
-0.08627301503440221 0.6439505508585256 0
-0.06901841202752729 0.7083456059446136 0
-0.05176380902065233 0.7727406610307017 0
-0.03450920601377738 0.8371357161167897 0
-0.01725460300689177 0.9015307712029175 0
-0.250191743599119 0.03219752754291071 0
-0.2329371405923172 0.0965925826287258 0
-0.2156825375855252 0.160987637714504 0
-0.1984279345787411 0.2253826928002532 0
-0.1811733315719547 0.2897777478860107 0
-0.1639187285651547 0.354172802971819 0
-0.1466641255583878 0.4185678580575039 0
-0.1294095225516101 0.482962913143229 0
-0.1121549195447201 0.5473579682293732 0
-0.09490031653783865 0.6117530233154855 0
-0.0776457135309665 0.6761480784015631 0
-0.06039111052408669 0.7405431334876692 0
-0.04313650751721795 0.8049381885737341 0
-0.02588190451033204 0.8693332436598631 0
-0.008627301503441542 0.9337282987460092 0
2 1 0 616
121
122
123
124
125
126
127
128
129
130
131
132
133
134
135
136
137
138
139
140
141
142
143
144
145
146
147
148
149
150
151
152
153
154
155
156
157
158
159
160
161
162
163
164
165
166
167
168
169
170
171
172
173
174
175
176
177
178
179
180
181
182
183
184
185
186
187
188
189
190
191
192
193
194
195
196
197
198
199
200
201
202
203
204
205
206
207
208
209
210
211
212
213
214
215
216
217
218
219
220
221
222
223
224
225
226
227
228
229
230
231
232
233
234
235
236
237
238
239
240
241
242
243
244
245
246
247
248
249
250
251
252
253
254
255
256
257
258
259
260
261
262
263
264
265
266
267
268
269
270
271
272
273
274
275
276
277
278
279
280
281
282
283
284
285
286
287
288
289
290
291
292
293
294
295
296
297
298
299
300
301
302
303
304
305
306
307
308
309
310
311
312
313
314
315
316
317
318
319
320
321
322
323
324
325
326
327
328
329
330
331
332
333
334
335
336
337
338
339
340
341
342
343
344
345
346
347
348
349
350
351
352
353
354
355
356
357
358
359
360
361
362
363
364
365
366
367
368
369
370
371
372
373
374
375
376
377
378
379
380
381
382
383
384
385
386
387
388
389
390
391
392
393
394
395
396
397
398
399
400
401
402
403
404
405
406
407
408
409
410
411
412
413
414
415
416
417
418
419
420
421
422
423
424
425
426
427
428
429
430
431
432
433
434
435
436
437
438
439
440
441
442
443
444
445
446
447
448
449
450
451
452
453
454
455
456
457
458
459
460
461
462
463
464
465
466
467
468
469
470
471
472
473
474
475
476
477
478
479
480
481
482
483
484
485
486
487
488
489
490
491
492
493
494
495
496
497
498
499
500
501
502
503
504
505
506
507
508
509
510
511
512
513
514
515
516
517
518
519
520
521
522
523
524
525
526
527
528
529
530
531
532
533
534
535
536
537
538
539
540
541
542
543
544
545
546
547
548
549
550
551
552
553
554
555
556
557
558
559
560
561
562
563
564
565
566
567
568
569
570
571
572
573
574
575
576
577
578
579
580
581
582
583
584
585
586
587
588
589
590
591
592
593
594
595
596
597
598
599
600
601
602
603
604
605
606
607
608
609
610
611
612
613
614
615
616
617
618
619
620
621
622
623
624
625
626
627
628
629
630
631
632
633
634
635
636
637
638
639
640
641
642
643
644
645
646
647
648
649
650
651
652
653
654
655
656
657
658
659
660
661
662
663
664
665
666
667
668
669
670
671
672
673
674
675
676
677
678
679
680
681
682
683
684
685
686
687
688
689
690
691
692
693
694
695
696
697
698
699
700
701
702
703
704
705
706
707
708
709
710
711
712
713
714
715
716
717
718
719
720
721
722
723
724
725
726
727
728
729
730
731
732
733
734
735
736
-8.76000660898768e-14 0.8371357161171389 -0
-0.01725460300696097 0.772740661031006 -0
-0.03450920601382292 0.7083456059449157 -0
-0.05176380902068516 0.6439505508588241 -0
-0.06901841202754752 0.5795554957727324 -0
-0.0862730150344098 0.5151604406866406 -0
-0.1035276180412811 0.450765385600515 -0
-0.1207822210481082 0.3863703305145547 -0
-0.1380368240548817 0.3219752754287945 -0
-0.1552914270616697 0.2575802203429799 -0
-0.1725460300684575 0.1931851652571662 -0
-0.1898006330752429 0.1287901101713614 -0
-0.2070552360820245 0.06439505508557089 -0
-0.2243098390888275 -2.996006220890024e-13 0
0.01725460300672123 0.7727406610313432 0
-1.406756655608632e-13 0.7083456059452078 -0
-0.01725460300699038 0.6439505508591179 -0
-0.03450920601384064 0.5795554957730258 -0
-0.0517638090206912 0.5151604406869327 -0
-0.06901841202754175 0.4507653856008394 -0
-0.08627301503439942 0.3863703305147199 -0
-0.1035276180412205 0.3219752754287367 -0
-0.1207822210479953 0.2575802203429259 -0
-0.1380368240547831 0.1931851652570674 -0
-0.1552914270615706 0.1287901101712096 -0
-0.1725460300683558 0.06439505508536025 -0
-0.1898006330751376 -4.759387328689968e-13 0
-0.2070552360819399 -0.06439505508638924 0
0.03450920601351049 0.7083456059456206 0
0.01725460300666068 0.6439505508594801 0
-1.761507606445889e-13 0.5795554957733885 -0
-0.01725460300701381 0.5151604406872934 -0
-0.03450920601385194 0.4507653856011966 -0
-0.05176380902069009 0.3863703305150999 -0
-0.06901841202753356 0.3219752754289832 -0
-0.08627301503434791 0.2575802203429753 -0
-0.1035276180411236 0.1931851652571115 -0
-0.1207822210479104 0.1287901101712066 -0
-0.1380368240546969 0.06439505508530244 -0
-0.1552914270614814 -5.939970737500744e-13 0
-0.1725460300682626 -0.06439505508647828 0
-0.1898006330750637 -0.1287901101724368 0
0.05176380902031927 0.6439505508598249 0
0.03450920601348018 0.5795554957736848 0
0.01725460300665482 0.5151604406875966 0
-1.716196629253375e-13 0.4507653856015036 -0
-0.01725460300699871 0.3863703305154086 -0
-0.03450920601382584 0.3219752754293134 -0
-0.05176380902065651 0.257580220343205 -0
-0.06901841202746556 0.1931851652571774 -0
-0.08627301503424353 0.1287901101712657 -0
-0.1035276180410307 0.06439505508531959 -0
-0.1207822210478177 -6.256939411031226e-13 0
-0.1380368240546027 -0.06439505508656396 0
-0.1552914270613848 -0.128790110172491 0
-0.172546030068186 -0.1931851652584894 0
0.06901841202711721 0.5795554957740698 0
0.05176380902028957 0.5151604406879273 0
0.03450920601347646 0.4507653856018393 0
0.01725460300666203 0.3863703305157461 0
-1.532871052312146e-13 0.3219752754296495 -0
-0.01725460300696863 0.257580220343553 -0
-0.03450920601378567 0.1931851652574502 -0
-0.05176380902058867 0.1287901101713998 -0
-0.06901841202736808 0.06439505508543739 -0
-0.08627301503415488 -5.526412660827873e-13 0
-0.1035276180409415 -0.06439505508654206 0
-0.1207822210477264 -0.128790110172525 0
-0.1380368240545085 -0.1931851652584977 0
-0.1552914270613091 -0.2575802203445391 0
0.08627301503391509 0.515160440688315 0
0.06901841202709898 0.45076538560217 0
0.05176380902029806 0.3863703305160823 0
0.03450920601349561 0.3219752754299885 0
0.01725460300669213 0.2575802203438908 0
-1.114525138845579e-13 0.1931851652577929 -0
-0.0172546030069149 0.1287901101716954 -0
-0.03450920601371178 0.06439505508562243 -0
-0.05176380902049268 -3.908262602436707e-13 0
-0.06901841202727914 -0.06439505508642474 0
-0.0862730150340654 -0.1287901101724582 0
-0.1035276180408501 -0.1931851652584859 0
-0.1207822210476325 -0.2575802203445045 0
-0.1380368240544323 -0.3219752754305886 0
0.1035276180407035 0.450765385602595 0
0.08627301503390036 0.3863703305164424 0
0.06901841202711319 0.3219752754303498 0
0.05176380902032412 0.25758022034425 0
0.03450920601353387 0.1931851652581456 0
0.01725460300674354 0.1287901101720411 0
-4.489464355827977e-14 0.06439505508594362 -0
-0.01725460300683428 -1.573741137406159e-13 0
-0.03450920601361516 -0.06439505508622673 0
-0.05176380902039983 -0.12879011017231 0
-0.06901841202718434 -0.1931851652583929 0
-0.0862730150339675 -0.2575802203444706 0
-0.1035276180407485 -0.3219752754305403 0
-0.1207822210475463 -0.3863703305166725 0
0.1207822210475463 0.3863703305166725 0
0.1035276180407485 0.3219752754305404 0
0.08627301503396748 0.2575802203444706 0
0.06901841202718438 0.1931851652583929 0
0.05176380902039983 0.12879011017231 0
0.03450920601361517 0.0643950550862267 0
0.01725460300683429 1.573463581650003e-13 0
4.490852134608758e-14 -0.06439505508594365 0
-0.01725460300674353 -0.1287901101720411 0
-0.03450920601353386 -0.1931851652581456 0
-0.05176380902032413 -0.25758022034425 0
-0.06901841202711319 -0.3219752754303497 0
-0.08627301503390031 -0.3863703305164424 0
-0.1035276180407035 -0.450765385602595 0
0.1380368240544323 0.3219752754305885 0
0.1207822210476324 0.2575802203445044 0
0.1035276180408502 0.1931851652584858 0
0.0862730150340654 0.1287901101724583 0
0.06901841202727912 0.06439505508642479 0
0.05176380902049268 3.908262602436707e-13 0
0.0345092060137118 -0.0643950550856224 0
0.01725460300691491 -0.1287901101716953 0
1.114525138845579e-13 -0.1931851652577929 0
-0.01725460300669214 -0.2575802203438907 0
-0.03450920601349562 -0.3219752754299884 0
-0.05176380902029809 -0.3863703305160823 0
-0.06901841202709896 -0.4507653856021701 0
-0.0862730150339151 -0.5151604406883149 0
0.1552914270613091 0.257580220344539 0
0.1380368240545086 0.1931851652584977 0
0.1207822210477264 0.128790110172525 0
0.1035276180409415 0.06439505508654206 0
0.08627301503415488 5.526412660827873e-13 0
0.06901841202736808 -0.0643950550854373 0
0.05176380902058866 -0.1287901101713999 0
0.03450920601378566 -0.1931851652574502 0
0.01725460300696864 -0.2575802203435531 0
1.532940441251185e-13 -0.3219752754296497 0
-0.01725460300666201 -0.386370330515746 0
-0.03450920601347648 -0.4507653856018394 0
-0.05176380902028957 -0.5151604406879273 0
-0.06901841202711718 -0.5795554957740696 0
0.1725460300681861 0.1931851652584895 0
0.1552914270613848 0.128790110172491 0
0.1380368240546027 0.06439505508656398 0
0.1207822210478176 6.257216966787382e-13 0
0.1035276180410307 -0.06439505508531962 0
0.08627301503424353 -0.1287901101712656 0
0.06901841202746554 -0.1931851652571774 0
0.05176380902065651 -0.2575802203432051 0
0.03450920601382586 -0.3219752754293133 0
0.01725460300699872 -0.3863703305154086 0
1.716196629253375e-13 -0.4507653856015037 0
-0.01725460300665482 -0.5151604406875965 0
-0.03450920601348019 -0.579555495773685 0
-0.05176380902031927 -0.6439505508598247 0
0.1898006330750637 0.1287901101724367 0
0.1725460300682626 0.06439505508647829 0
0.1552914270614814 5.940525849013056e-13 0
0.1380368240546969 -0.06439505508530238 0
0.1207822210479104 -0.1287901101712065 0
0.1035276180411236 -0.1931851652571114 0
0.08627301503434789 -0.2575802203429753 0
0.06901841202753356 -0.3219752754289834 0
0.05176380902069008 -0.3863703305150999 0
0.03450920601385195 -0.4507653856011966 0
0.0172546030070138 -0.5151604406872934 0
1.76143821750685e-13 -0.5795554957733885 0
-0.01725460300666068 -0.6439505508594802 0
-0.03450920601351049 -0.7083456059456205 0
0.2070552360819399 0.06439505508638924 0
0.1898006330751375 4.759387328689968e-13 0
0.1725460300683559 -0.06439505508536023 0
0.1552914270615706 -0.1287901101712096 0
0.1380368240547831 -0.1931851652570674 0
0.1207822210479954 -0.2575802203429259 0
0.1035276180412205 -0.3219752754287369 0
0.08627301503439941 -0.3863703305147197 0
0.06901841202754176 -0.4507653856008395 0
0.05176380902069122 -0.5151604406869325 0
0.03450920601384064 -0.5795554957730258 0
0.01725460300699038 -0.643950550859118 0
1.406756655608632e-13 -0.7083456059452078 0
-0.01725460300672124 -0.7727406610313431 0
0.2243098390888275 2.996006220890024e-13 0
0.2070552360820245 -0.06439505508557092 0
0.1898006330752429 -0.1287901101713614 0
0.1725460300684575 -0.1931851652571661 0
0.1552914270616697 -0.2575802203429799 0
0.1380368240548816 -0.3219752754287945 0
0.1207822210481082 -0.3863703305145547 0
0.1035276180412811 -0.4507653856005151 0
0.08627301503440982 -0.5151604406866405 0
0.06901841202754752 -0.579555495772732 0
0.05176380902068514 -0.643950550858824 0
0.03450920601382293 -0.7083456059449156 0
0.01725460300696097 -0.7727406610310062 0
8.76000660898768e-14 -0.8371357161171391 0
0.008627301503351829 0.8693332436602157 0
-0.008627301503489686 0.8693332436600282 -0
-0.008627301503524287 0.8049381885740725 -0
-0.02588190451036918 0.8049381885738979 -0
-0.02588190451039195 0.7405431334879609 -0
-0.04313650751723763 0.7405431334878088 -0
-0.04313650751725404 0.6761480784018699 -0
-0.06039111052410623 0.6761480784017189 -0
-0.06039111052411635 0.6117530233157782 -0
-0.07764571353097487 0.611753023315629 -0
-0.07764571353097866 0.5473579682296865 -0
-0.09490031653784342 0.5473579682295393 -0
-0.09490031653784545 0.4829629131435778 -0
-0.1121549195447219 0.4829629131434126 -0
-0.1121549195446946 0.4185678580575348 -0
-0.1294095225515524 0.418567858057465 -0
-0.1294095225514949 0.3541728029716746 -0
-0.1466641255583255 0.3541728029717316 -0
-0.1466641255582757 0.2897777478858872 -0
-0.1639187285651141 0.2897777478859404 -0
-0.1639187285650636 0.2253826928000731 -0
-0.1811733315719024 0.22538269280015 -0
-0.1811733315718502 0.1609876377142638 -0
-0.1984279345786883 0.160987637714369 -0
-0.1984279345786337 0.09659258262846614 -0
-0.2156825375854702 0.09659258262860278 -0
-0.215682537585426 0.03219752754263565 -0
-0.2329371405922739 0.03219752754275512 -0
-0.2329371405922273 -0.03219752754322861 0
0.02588190451015459 0.8049381885744199 0
0.008627301503316817 0.804938188574241 0
0.00862730150329028 0.7405431334882755 0
-0.008627301503550825 0.740543133488107 -0
-0.00862730150356553 0.6761480784021628 -0
-0.02588190451040665 0.6761480784020168 -0
-0.02588190451041551 0.6117530233160718 -0
-0.0431365075172629 0.611753023315925 -0
-0.04313650751726592 0.5473579682299792 -0
-0.06039111052411936 0.5473579682298325 -0
-0.06039111052411647 0.4829629131438861 -0
-0.07764571353097577 0.48296291314374 -0
-0.07764571353097058 0.4185678580577796 -0
-0.09490031653784026 0.4185678580576174 -0
-0.09490031653780995 0.3541728029717283 -0
-0.1121549195446643 0.3541728029716457 -0
-0.1121549195446079 0.2897777478858313 -0
-0.1294095225514385 0.2897777478858602 -0
-0.1294095225513892 0.2253826927999967 -0
-0.1466641255582264 0.2253826928000237 -0
-0.1466641255581768 0.1609876377141385 -0
-0.163918728565014 0.1609876377141879 -0
-0.1639187285649632 0.09659258262828492 -0
-0.1811733315717994 0.09659258262836082 -0
-0.1811733315717467 0.03219752754244216 -0
-0.198427934578581 0.03219752754254748 -0
-0.1984279345785387 -0.03219752754343259 0
-0.2156825375853837 -0.03219752754334441 0
-0.2156825375853398 -0.09659258262934091 0
0.04313650751693745 0.7405431334886984 0
0.02588190451011586 0.7405431334884819 0
0.02588190451008558 0.6761480784025503 0
0.00862730150326 0.6761480784023439 0
0.008627301503242263 0.6117530233164343 0
-0.008627301503583268 0.6117530233162531 -0
-0.008627301503594982 0.5473579682303409 -0
-0.02588190451042723 0.5473579682301596 -0
-0.02588190451043288 0.482962913144245 -0
-0.04313650751727157 0.4829629131440646 -0
-0.04313650751727102 0.4185678580581483 -0
-0.06039111052411592 0.4185678580579697 -0
-0.06039111052411182 0.3541728029720416 -0
-0.0776457135309665 0.3541728029718516 -0
-0.07764571353094074 0.2897777478859793 -0
-0.09490031653778419 0.289777747885856 -0
-0.09490031653773577 0.2253826928000434 -0
-0.1121549195445595 0.2253826928000187 -0
-0.112154919544517 0.160987637714159 -0
-0.1294095225513467 0.160987637714137 -0
-0.1294095225513037 0.0965925826282545 -0
-0.1466641255581337 0.09659258262825601 -0
-0.1466641255580892 0.03219752754235422 -0
-0.1639187285649186 0.03219752754238313 -0
-0.163918728564872 -0.03219752754353614 0
-0.1811733315717001 -0.03219752754347711 0
-0.1811733315716631 -0.09659258262945752 0
-0.1984279345785018 -0.096592582629413 0
-0.1984279345784632 -0.1609876377154123 0
0.06039111052374055 0.6761480784029013 0
0.04313650751691488 0.6761480784027227 0
0.04313650751689972 0.6117530233167549 0
0.02588190451007043 0.6117530233165824 0
0.0258819045100675 0.5473579682306406 0
0.008627301503239336 0.5473579682304925 0
0.008627301503241602 0.4829629131445501 0
-0.008627301503592717 0.4829629131443985 -0
-0.008627301503585167 0.4185678580584561 -0
-0.02588190451042533 0.4185678580583026 -0
-0.02588190451041228 0.354172802972361 -0
-0.04313650751725796 0.3541728029722067 -0
-0.04313650751724117 0.2897777478862592 -0
-0.06039111052409503 0.2897777478860941 -0
-0.06039111052406103 0.2253826928001912 -0
-0.07764571353090674 0.2253826928000764 -0
-0.07764571353085455 0.1609876377142216 -0
-0.09490031653768358 0.1609876377141886 -0
-0.09490031653763711 0.09659258262829264 -0
-0.1121549195444706 0.09659258262826308 -0
-0.1121549195444242 0.03219752754234695 -0
-0.1294095225512573 0.03219752754233837 -0
-0.1294095225512102 -0.03219752754359483 0
-0.146664125558042 -0.03219752754357898 0
-0.1466641255579937 -0.09659258262952747 0
-0.1639187285648237 -0.09659258262948463 0
-0.1639187285647854 -0.1609876377154902 0
-0.1811733315716249 -0.1609876377154631 0
-0.181173331571586 -0.2253826928014862 0
0.07764571353053239 0.6117530233171461 0
0.06039111052371825 0.6117530233169474 0
0.06039111052370339 0.5473579682309986 0
0.04313650751688487 0.5473579682308061 0
0.04313650751688301 0.4829629131448833 0
0.02588190451006564 0.482962913144718 0
0.02588190451006924 0.4185678580587927 0
0.008627301503245203 0.4185678580586248 0
0.008627301503254369 0.3541728029726978 0
-0.008627301503576001 0.3541728029725291 -0
-0.008627301503560957 0.2897777478866013 -0
-0.02588190451039724 0.2897777478864332 -0
-0.02588190451037715 0.2253826928005016 -0
-0.04313650751722109 0.2253826928003276 -0
-0.04313650751718717 0.160987637714425 -0
-0.06039111052402711 0.1609876377142886 -0
-0.06039111052397837 0.09659258262841859 -0
-0.07764571353080581 0.09659258262835153 -0
-0.07764571353076148 0.03219752754244237 -0
-0.09490031653759279 0.03219752754238348 -0
-0.09490031653754818 -0.03219752754354735 0
-0.1121549195443796 -0.03219752754358388 0
-0.112154919544334 -0.09659258262953353 0
-0.1294095225511645 -0.09659258262954448 0
-0.1294095225511175 -0.1609876377155114 0
-0.1466641255579467 -0.1609876377154943 0
-0.1466641255579088 -0.2253826928015185 0
-0.1639187285647476 -0.2253826928015143 0
-0.1639187285647091 -0.2897777478875586 0
0.09490031653732418 0.5473579682313912 0
0.07764571353051615 0.5473579682311924 0
0.07764571353050703 0.4829629131452425 0
0.06039111052369427 0.4829629131450487 0
0.06039111052369852 0.4185678580591262 0
0.04313650751688726 0.4185678580589608 0
0.04313650751689684 0.3541728029730354 0
0.02588190451007882 0.3541728029728673 0
0.02588190451009387 0.2897777478869397 0
0.008627301503269423 0.2897777478867701 0
0.00862730150329034 0.2253826928008419 0
-0.00862730150354004 0.2253826928006729 -0
-0.008627301503513176 0.1609876377147442 -0
-0.02588190451035028 0.1609876377145728 -0
-0.02588190451031334 0.09659258262865893 -0
-0.04313650751715022 0.09659258262851111 -0
-0.04313650751710223 0.0321975275426158 -0
-0.06039111052393038 0.03219752754252328 -0
-0.06039111052388591 -0.03219752754340778 0
-0.077645713530717 -0.03219752754348869 0
-0.07764571353067226 -0.09659258262944148 0
-0.09490031653750344 -0.09659258262950014 0
-0.09490031653745777 -0.160987637715472 0
-0.1121549195442883 -0.1609876377155054 0
-0.1121549195442413 -0.2253826928014951 0
-0.1294095225510705 -0.2253826928015011 0
-0.1294095225510324 -0.2897777478875465 0
-0.1466641255578707 -0.2897777478875639 0
-0.1466641255578323 -0.3541728029736307 0
0.1121549195441058 0.482962913145674 0
0.09490031653730931 0.482962913145455 0
0.09490031653730194 0.4185678580595187 0
0.07764571353049968 0.4185678580593062 0
0.07764571353050678 0.3541728029733961 0
0.06039111052370563 0.3541728029732161 0
0.06039111052371865 0.2897777478872999 0
0.04313650751690987 0.2897777478871192 0
0.04313650751692899 0.2253826928011978 0
0.025881904510113 0.2253826928010182 0
0.02588190451013871 0.1609876377150933 0
0.008627301503316046 0.160987637714917 0
0.008627301503349324 0.09659258262899234 0
-0.008627301503479897 0.09659258262881952 -0
-0.008627301503439586 0.03219752754289312 -0
-0.02588190451027303 0.03219752754273253 -0
-0.02588190451022472 -0.03219752754319205 0
-0.04313650751705392 -0.03219752754330878 0
-0.0431365075170075 -0.09659258262926836 0
-0.06039111052383948 -0.09659258262936736 0
-0.06039111052379208 -0.1609876377153514 0
-0.07764571353062487 -0.1609876377154256 0
-0.07764571353057592 -0.2253826928014317 0
-0.09490031653740882 -0.2253826928014782 0
-0.09490031653735799 -0.2897777478875054 0
-0.1121549195441905 -0.2897777478875224 0
-0.1121549195441474 -0.3541728029736064 0
-0.1294095225509893 -0.3541728029736306 0
-0.1294095225509455 -0.4185678580597402 0
0.1294095225509455 0.4185678580597402 0
0.1121549195441249 0.4185678580596338 0
0.1121549195441474 0.3541728029736064 0
0.09490031653732442 0.3541728029734914 0
0.09490031653735798 0.2897777478875055 0
0.07764571353054034 0.2897777478874102 0
0.07764571353057592 0.2253826928014317 0
0.06039111052375425 0.2253826928013214 0
0.0603911105237921 0.1609876377153515 0
0.04313650751696685 0.1609876377152278 0
0.0431365075170075 0.09659258262926834 0
0.02588190451017936 0.09659258262913388 0
0.02588190451022473 0.03219752754319202 0
0.008627301503394698 0.03219752754305048 0
0.008627301503439599 -0.03219752754289315 0
-0.008627301503394684 -0.03219752754305051 0
-0.008627301503349311 -0.09659258262899237 0
-0.02588190451017934 -0.09659258262913391 0
-0.0258819045101387 -0.1609876377150933 0
-0.04313650751696685 -0.1609876377152278 0
-0.043136507516929 -0.2253826928011978 0
-0.06039111052375423 -0.2253826928013214 0
-0.06039111052371866 -0.2897777478872998 0
-0.07764571353054034 -0.2897777478874102 0
-0.07764571353050675 -0.354172802973396 0
-0.09490031653732439 -0.3541728029734914 0
-0.09490031653730191 -0.4185678580595187 0
-0.1121549195441249 -0.4185678580596338 0
-0.1121549195441058 -0.482962913145674 0
0.1466641255578323 0.3541728029736307 0
0.1294095225509893 0.3541728029736305 0
0.1294095225510324 0.2897777478875464 0
0.1121549195441905 0.2897777478875224 0
0.1121549195442413 0.2253826928014951 0
0.09490031653740882 0.2253826928014782 0
0.09490031653745779 0.160987637715472 0
0.07764571353062488 0.1609876377154256 0
0.07764571353067226 0.09659258262944152 0
0.06039111052383948 0.09659258262936739 0
0.0603911105238859 0.03219752754340781 0
0.04313650751705392 0.03219752754330876 0
0.04313650751710224 -0.03219752754261579 0
0.02588190451027304 -0.03219752754273253 0
0.02588190451031335 -0.09659258262865887 0
0.008627301503479911 -0.09659258262881949 0
0.008627301503513183 -0.1609876377147441 0
-0.008627301503316039 -0.160987637714917 0
-0.008627301503290344 -0.2253826928008418 0
-0.025881904510113 -0.2253826928010181 0
-0.02588190451009388 -0.2897777478869396 0
-0.04313650751690988 -0.2897777478871192 0
-0.04313650751689686 -0.3541728029730353 0
-0.06039111052370564 -0.354172802973216 0
-0.06039111052369853 -0.4185678580591262 0
-0.07764571353049964 -0.4185678580593062 0
-0.07764571353050703 -0.4829629131452425 0
-0.09490031653730932 -0.4829629131454549 0
-0.0949003165373242 -0.5473579682313912 0
0.1639187285647091 0.2897777478875585 0
0.1466641255578707 0.2897777478875637 0
0.1466641255579089 0.2253826928015184 0
0.1294095225510705 0.2253826928015011 0
0.1294095225511175 0.1609876377155114 0
0.1121549195442883 0.1609876377155054 0
0.1121549195443339 0.09659258262953353 0
0.09490031653750344 0.09659258262950016 0
0.09490031653754818 0.03219752754354735 0
0.077645713530717 0.03219752754348872 0
0.07764571353076148 -0.03219752754244233 0
0.06039111052393038 -0.03219752754252324 0
0.06039111052397837 -0.09659258262841858 0
0.04313650751715023 -0.09659258262851113 0
0.04313650751718716 -0.160987637714425 0
0.02588190451035029 -0.1609876377145728 0
0.02588190451037715 -0.2253826928005017 0
0.008627301503540047 -0.225382692800673 0
0.008627301503560968 -0.2897777478866014 0
-0.008627301503269423 -0.2897777478867701 0
-0.008627301503254359 -0.3541728029726978 0
-0.02588190451007882 -0.3541728029728672 0
-0.02588190451006924 -0.4185678580587927 0
-0.04313650751688729 -0.4185678580589608 0
-0.04313650751688303 -0.4829629131448834 0
-0.06039111052369427 -0.4829629131450487 0
-0.06039111052370338 -0.5473579682309985 0
-0.07764571353051614 -0.5473579682311922 0
-0.07764571353053237 -0.611753023317146 0
0.181173331571586 0.2253826928014863 0
0.1639187285647476 0.2253826928015143 0
0.1639187285647855 0.1609876377154903 0
0.1466641255579467 0.1609876377154944 0
0.1466641255579937 0.09659258262952751 0
0.1294095225511646 0.0965925826295445 0
0.1294095225512102 0.03219752754359485 0
0.1121549195443796 0.03219752754358389 0
0.1121549195444242 -0.03219752754234695 0
0.09490031653759277 -0.03219752754238349 0
0.0949003165376371 -0.09659258262829259 0
0.07764571353080581 -0.09659258262835144 0
0.07764571353085453 -0.1609876377142215 0
0.0603911105240271 -0.1609876377142886 0
0.06039111052406103 -0.2253826928001912 0
0.04313650751722109 -0.2253826928003277 0
0.04313650751724118 -0.2897777478862592 0
0.02588190451039725 -0.2897777478864332 0
0.02588190451041229 -0.3541728029723609 0
0.008627301503576008 -0.3541728029725291 0
0.008627301503585171 -0.4185678580584561 0
-0.008627301503245196 -0.4185678580586248 0
-0.008627301503241602 -0.4829629131445501 0
-0.02588190451006565 -0.482962913144718 0
-0.02588190451006751 -0.5473579682306408 0
-0.04313650751688488 -0.5473579682308062 0
-0.04313650751689974 -0.6117530233167549 0
-0.06039111052371823 -0.6117530233169471 0
-0.06039111052374055 -0.676148078402901 0
0.1984279345784632 0.1609876377154123 0
0.1811733315716249 0.1609876377154631 0
0.1811733315716631 0.09659258262945752 0
0.1639187285648237 0.09659258262948467 0
0.163918728564872 0.03219752754353617 0
0.146664125558042 0.03219752754357902 0
0.1466641255580892 -0.03219752754235417 0
0.1294095225512573 -0.03219752754233833 0
0.1294095225513037 -0.09659258262825443 0
0.1121549195444705 -0.09659258262826305 0
0.112154919544517 -0.160987637714159 0
0.09490031653768358 -0.1609876377141885 0
0.09490031653773576 -0.2253826928000434 0
0.07764571353090671 -0.2253826928000764 0
0.07764571353094073 -0.2897777478859793 0
0.06039111052409504 -0.2897777478860942 0
0.06039111052411182 -0.3541728029720416 0
0.04313650751725797 -0.3541728029722065 0
0.04313650751727102 -0.4185678580581482 0
0.02588190451042533 -0.4185678580583026 0
0.02588190451043287 -0.482962913144245 0
0.00862730150359271 -0.4829629131443985 0
0.008627301503594972 -0.5473579682303409 0
-0.00862730150323934 -0.5473579682304925 0
-0.008627301503242268 -0.6117530233164343 0
-0.02588190451007043 -0.6117530233165827 0
-0.02588190451008558 -0.6761480784025503 0
-0.04313650751691488 -0.6761480784027225 0
-0.04313650751693745 -0.7405431334886983 0
0.2156825375853398 0.09659258262934091 0
0.1984279345785018 0.09659258262941299 0
0.1984279345785387 0.03219752754343259 0
0.1811733315717001 0.03219752754347711 0
0.1811733315717467 -0.03219752754244214 0
0.1639187285649186 -0.03219752754238309 0
0.1639187285649632 -0.09659258262828489 0
0.1466641255581337 -0.09659258262825597 0
0.1466641255581768 -0.1609876377141385 0
0.1294095225513467 -0.1609876377141369 0
0.1294095225513892 -0.2253826927999966 0
0.1121549195445595 -0.2253826928000187 0
0.1121549195446079 -0.2897777478858314 0
0.09490031653778418 -0.2897777478858561 0
0.09490031653780993 -0.3541728029717283 0
0.07764571353096648 -0.3541728029718515 0
0.07764571353097058 -0.4185678580577796 0
0.06039111052411592 -0.4185678580579697 0
0.06039111052411649 -0.482962913143886 0
0.04313650751727158 -0.4829629131440645 0
0.04313650751726593 -0.5473579682299792 0
0.02588190451042722 -0.5473579682301596 0
0.02588190451041551 -0.611753023316072 0
0.008627301503583262 -0.6117530233162533 0
0.008627301503565528 -0.676148078402163 0
-0.008627301503260002 -0.6761480784023439 0
-0.008627301503290281 -0.7405431334882755 0
-0.02588190451011586 -0.7405431334884818 0
-0.02588190451015459 -0.8049381885744198 0
0.2329371405922273 0.0321975275432286 0
0.2156825375853837 0.03219752754334442 0
0.215682537585426 -0.03219752754263566 0
0.198427934578581 -0.03219752754254749 0
0.1984279345786337 -0.09659258262846615 0
0.1811733315717994 -0.0965925826283608 0
0.1811733315718502 -0.1609876377142638 0
0.163918728565014 -0.1609876377141878 0
0.1639187285650636 -0.2253826928000731 0
0.1466641255582264 -0.2253826928000237 0
0.1466641255582757 -0.2897777478858872 0
0.1294095225514385 -0.2897777478858602 0
0.1294095225514949 -0.3541728029716746 0
0.1121549195446643 -0.3541728029716458 0
0.1121549195446946 -0.4185678580575349 0
0.09490031653784023 -0.4185678580576174 0
0.09490031653784545 -0.4829629131435778 0
0.0776457135309758 -0.48296291314374 0
0.07764571353097867 -0.5473579682296863 0
0.06039111052411937 -0.5473579682298322 0
0.06039111052411633 -0.611753023315778 0
0.04313650751726289 -0.611753023315925 0
0.04313650751725404 -0.6761480784018699 0
0.02588190451040666 -0.6761480784020168 0
0.02588190451039195 -0.7405431334879609 0
0.008627301503550825 -0.740543133488107 0
0.008627301503524287 -0.8049381885740727 0
-0.008627301503316819 -0.804938188574241 0
-0.008627301503351829 -0.8693332436602159 0
0.2329371405922739 -0.03219752754275511 0
0.2156825375854702 -0.09659258262860279 0
0.1984279345786883 -0.160987637714369 0
0.1811733315719025 -0.22538269280015 0
0.1639187285651141 -0.2897777478859404 0
0.1466641255583255 -0.3541728029717316 0
0.1294095225515524 -0.418567858057465 0
0.1121549195447219 -0.4829629131434127 0
0.09490031653784343 -0.5473579682295392 0
0.07764571353097487 -0.6117530233156288 0
0.06039111052410621 -0.6761480784017189 0
0.04313650751723763 -0.7405431334878086 0
0.02588190451036918 -0.804938188573898 0
0.008627301503489686 -0.8693332436600283 0
$EndNodes
$Elements
1 225 1 225
2 1 16 225
1 1 5 121 105 19 317 318 120 
2 105 121 122 104 318 319 320 119 
3 104 122 123 103 320 321 322 118 
4 103 123 124 102 322 323 324 117 
5 102 124 125 101 324 325 326 116 
6 101 125 126 100 326 327 328 115 
7 100 126 127 99 328 329 330 114 
8 99 127 128 98 330 331 332 113 
9 98 128 129 97 332 333 334 112 
10 97 129 130 96 334 335 336 111 
11 96 130 131 95 336 337 338 110 
12 95 131 132 94 338 339 340 109 
13 94 132 133 93 340 341 342 108 
14 93 133 134 92 342 343 344 107 
15 92 134 76 4 344 345 91 106 
16 5 6 135 121 20 346 347 317 
17 121 135 136 122 347 348 349 319 
18 122 136 137 123 349 350 351 321 
19 123 137 138 124 351 352 353 323 
20 124 138 139 125 353 354 355 325 
21 125 139 140 126 355 356 357 327 
22 126 140 141 127 357 358 359 329 
23 127 141 142 128 359 360 361 331 
24 128 142 143 129 361 362 363 333 
25 129 143 144 130 363 364 365 335 
26 130 144 145 131 365 366 367 337 
27 131 145 146 132 367 368 369 339 
28 132 146 147 133 369 370 371 341 
29 133 147 148 134 371 372 373 343 
30 134 148 75 76 373 374 90 345 
31 6 7 149 135 21 375 376 346 
32 135 149 150 136 376 377 378 348 
33 136 150 151 137 378 379 380 350 
34 137 151 152 138 380 381 382 352 
35 138 152 153 139 382 383 384 354 
36 139 153 154 140 384 385 386 356 
37 140 154 155 141 386 387 388 358 
38 141 155 156 142 388 389 390 360 
39 142 156 157 143 390 391 392 362 
40 143 157 158 144 392 393 394 364 
41 144 158 159 145 394 395 396 366 
42 145 159 160 146 396 397 398 368 
43 146 160 161 147 398 399 400 370 
44 147 161 162 148 400 401 402 372 
45 148 162 74 75 402 403 89 374 
46 7 8 163 149 22 404 405 375 
47 149 163 164 150 405 406 407 377 
48 150 164 165 151 407 408 409 379 
49 151 165 166 152 409 410 411 381 
50 152 166 167 153 411 412 413 383 
51 153 167 168 154 413 414 415 385 
52 154 168 169 155 415 416 417 387 
53 155 169 170 156 417 418 419 389 
54 156 170 171 157 419 420 421 391 
55 157 171 172 158 421 422 423 393 
56 158 172 173 159 423 424 425 395 
57 159 173 174 160 425 426 427 397 
58 160 174 175 161 427 428 429 399 
59 161 175 176 162 429 430 431 401 
60 162 176 73 74 431 432 88 403 
61 8 9 177 163 23 433 434 404 
62 163 177 178 164 434 435 436 406 
63 164 178 179 165 436 437 438 408 
64 165 179 180 166 438 439 440 410 
65 166 180 181 167 440 441 442 412 
66 167 181 182 168 442 443 444 414 
67 168 182 183 169 444 445 446 416 
68 169 183 184 170 446 447 448 418 
69 170 184 185 171 448 449 450 420 
70 171 185 186 172 450 451 452 422 
71 172 186 187 173 452 453 454 424 
72 173 187 188 174 454 455 456 426 
73 174 188 189 175 456 457 458 428 
74 175 189 190 176 458 459 460 430 
75 176 190 72 73 460 461 87 432 
76 9 10 191 177 24 462 463 433 
77 177 191 192 178 463 464 465 435 
78 178 192 193 179 465 466 467 437 
79 179 193 194 180 467 468 469 439 
80 180 194 195 181 469 470 471 441 
81 181 195 196 182 471 472 473 443 
82 182 196 197 183 473 474 475 445 
83 183 197 198 184 475 476 477 447 
84 184 198 199 185 477 478 479 449 
85 185 199 200 186 479 480 481 451 
86 186 200 201 187 481 482 483 453 
87 187 201 202 188 483 484 485 455 
88 188 202 203 189 485 486 487 457 
89 189 203 204 190 487 488 489 459 
90 190 204 71 72 489 490 86 461 
91 10 11 205 191 25 491 492 462 
92 191 205 206 192 492 493 494 464 
93 192 206 207 193 494 495 496 466 
94 193 207 208 194 496 497 498 468 
95 194 208 209 195 498 499 500 470 
96 195 209 210 196 500 501 502 472 
97 196 210 211 197 502 503 504 474 
98 197 211 212 198 504 505 506 476 
99 198 212 213 199 506 507 508 478 
100 199 213 214 200 508 509 510 480 
101 200 214 215 201 510 511 512 482 
102 201 215 216 202 512 513 514 484 
103 202 216 217 203 514 515 516 486 
104 203 217 218 204 516 517 518 488 
105 204 218 70 71 518 519 85 490 
106 11 12 219 205 26 520 521 491 
107 205 219 220 206 521 522 523 493 
108 206 220 221 207 523 524 525 495 
109 207 221 222 208 525 526 527 497 
110 208 222 223 209 527 528 529 499 
111 209 223 224 210 529 530 531 501 
112 210 224 225 211 531 532 533 503 
113 211 225 226 212 533 534 535 505 
114 212 226 227 213 535 536 537 507 
115 213 227 228 214 537 538 539 509 
116 214 228 229 215 539 540 541 511 
117 215 229 230 216 541 542 543 513 
118 216 230 231 217 543 544 545 515 
119 217 231 232 218 545 546 547 517 
120 218 232 69 70 547 548 84 519 
121 12 13 233 219 27 549 550 520 
122 219 233 234 220 550 551 552 522 
123 220 234 235 221 552 553 554 524 
124 221 235 236 222 554 555 556 526 
125 222 236 237 223 556 557 558 528 
126 223 237 238 224 558 559 560 530 
127 224 238 239 225 560 561 562 532 
128 225 239 240 226 562 563 564 534 
129 226 240 241 227 564 565 566 536 
130 227 241 242 228 566 567 568 538 
131 228 242 243 229 568 569 570 540 
132 229 243 244 230 570 571 572 542 
133 230 244 245 231 572 573 574 544 
134 231 245 246 232 574 575 576 546 
135 232 246 68 69 576 577 83 548 
136 13 14 247 233 28 578 579 549 
137 233 247 248 234 579 580 581 551 
138 234 248 249 235 581 582 583 553 
139 235 249 250 236 583 584 585 555 
140 236 250 251 237 585 586 587 557 
141 237 251 252 238 587 588 589 559 
142 238 252 253 239 589 590 591 561 
143 239 253 254 240 591 592 593 563 
144 240 254 255 241 593 594 595 565 
145 241 255 256 242 595 596 597 567 
146 242 256 257 243 597 598 599 569 
147 243 257 258 244 599 600 601 571 
148 244 258 259 245 601 602 603 573 
149 245 259 260 246 603 604 605 575 
150 246 260 67 68 605 606 82 577 
151 14 15 261 247 29 607 608 578 
152 247 261 262 248 608 609 610 580 
153 248 262 263 249 610 611 612 582 
154 249 263 264 250 612 613 614 584 
155 250 264 265 251 614 615 616 586 
156 251 265 266 252 616 617 618 588 
157 252 266 267 253 618 619 620 590 
158 253 267 268 254 620 621 622 592 
159 254 268 269 255 622 623 624 594 
160 255 269 270 256 624 625 626 596 
161 256 270 271 257 626 627 628 598 
162 257 271 272 258 628 629 630 600 
163 258 272 273 259 630 631 632 602 
164 259 273 274 260 632 633 634 604 
165 260 274 66 67 634 635 81 606 
166 15 16 275 261 30 636 637 607 
167 261 275 276 262 637 638 639 609 
168 262 276 277 263 639 640 641 611 
169 263 277 278 264 641 642 643 613 
170 264 278 279 265 643 644 645 615 
171 265 279 280 266 645 646 647 617 
172 266 280 281 267 647 648 649 619 
173 267 281 282 268 649 650 651 621 
174 268 282 283 269 651 652 653 623 
175 269 283 284 270 653 654 655 625 
176 270 284 285 271 655 656 657 627 
177 271 285 286 272 657 658 659 629 
178 272 286 287 273 659 660 661 631 
179 273 287 288 274 661 662 663 633 
180 274 288 65 66 663 664 80 635 
181 16 17 289 275 31 665 666 636 
182 275 289 290 276 666 667 668 638 
183 276 290 291 277 668 669 670 640 
184 277 291 292 278 670 671 672 642 
185 278 292 293 279 672 673 674 644 
186 279 293 294 280 674 675 676 646 
187 280 294 295 281 676 677 678 648 
188 281 295 296 282 678 679 680 650 
189 282 296 297 283 680 681 682 652 
190 283 297 298 284 682 683 684 654 
191 284 298 299 285 684 685 686 656 
192 285 299 300 286 686 687 688 658 
193 286 300 301 287 688 689 690 660 
194 287 301 302 288 690 691 692 662 
195 288 302 64 65 692 693 79 664 
196 17 18 303 289 32 694 695 665 
197 289 303 304 290 695 696 697 667 
198 290 304 305 291 697 698 699 669 
199 291 305 306 292 699 700 701 671 
200 292 306 307 293 701 702 703 673 
201 293 307 308 294 703 704 705 675 
202 294 308 309 295 705 706 707 677 
203 295 309 310 296 707 708 709 679 
204 296 310 311 297 709 710 711 681 
205 297 311 312 298 711 712 713 683 
206 298 312 313 299 713 714 715 685 
207 299 313 314 300 715 716 717 687 
208 300 314 315 301 717 718 719 689 
209 301 315 316 302 719 720 721 691 
210 302 316 63 64 721 722 78 693 
211 18 2 34 303 33 48 723 694 
212 303 34 35 304 723 49 724 696 
213 304 35 36 305 724 50 725 698 
214 305 36 37 306 725 51 726 700 
215 306 37 38 307 726 52 727 702 
216 307 38 39 308 727 53 728 704 
217 308 39 40 309 728 54 729 706 
218 309 40 41 310 729 55 730 708 
219 310 41 42 311 730 56 731 710 
220 311 42 43 312 731 57 732 712 
221 312 43 44 313 732 58 733 714 
222 313 44 45 314 733 59 734 716 
223 314 45 46 315 734 60 735 718 
224 315 46 47 316 735 61 736 720 
225 316 47 3 63 736 62 77 722 
$EndElements
