$MeshFormat
4.1 0 8
$EndMeshFormat
$Entities
4 4 1 0
1 0 0 0 0 
2 1 0 0 0 
3 1.866025403784439 0.4999999999999999 0 0 
4 0.8660254037844387 0.4999999999999999 0 0 
1 0 0 0 1 0 0 0 2 1 -2 
2 1 0 0 1.866025403784439 0.4999999999999999 0 0 2 2 -3 
3 0.8660254037844388 0.4999999999999999 0 1.866025403784439 0.4999999999999999 0 0 2 3 -4 
4 0 0 0 0.8660254037844387 0.4999999999999999 0 0 2 4 -1 
1 0 0 0 1.866025403784439 0.4999999999999999 0 1 1 4 1 2 3 4 
$EndEntities
$Nodes
9 65 1 65
0 1 0 1
1
0 0 0
0 2 0 1
2
1 0 0
0 3 0 1
3
1.866025403784439 0.4999999999999999 0
0 4 0 1
4
0.8660254037844387 0.4999999999999999 0
1 1 0 7
5
6
7
8
9
10
11
0.2499999999994109 0 0
0.4999999999986921 0 0
0.7499999999993406 0 0
0.1249999999997752 0 0
0.3749999999990515 0 0
0.6249999999990163 0 0
0.8749999999996704 0 0
1 2 0 7
12
13
14
15
16
17
18
1.216506350945771 0.1249999999998047 0
1.433012701890832 0.2499999999991989 0
1.649519052838009 0.3749999999998152 0
1.108253175473015 0.06249999999997689 0
1.324759526418069 0.1874999999993677 0
1.541265877364599 0.3124999999996099 0
1.757772228311301 0.437499999999952 0
1 3 0 7
19
20
21
22
23
24
25
1.616025403784818 0.4999999999999999 0
1.366025403785197 0.4999999999999999 0
1.116025403785577 0.4999999999999999 0
1.741025403784847 0.4999999999999999 0
1.491025403784989 0.4999999999999999 0
1.241025403785504 0.4999999999999999 0
0.9910254037850228 0.4999999999999999 0
1 4 0 7
26
27
28
29
30
31
32
0.6495190528386851 0.3750000000002055 0
0.4330127018932202 0.2500000000005778 0
0.2165063509465652 0.125000000000263 0
0.7577722283115144 0.4375000000000753 0
0.5412658773659116 0.3125000000003679 0
0.3247595264199516 0.1875000000004545 0
0.1082531754732826 0.06250000000013151 0
2 1 0 33
33
34
35
36
37
38
39
40
41
42
43
44
45
46
47
48
49
50
51
52
53
54
55
56
57
58
59
60
61
62
63
64
65
0.4665063509462095 0.1250000000001485 0
0.6830127018928978 0.2500000000002331 0
0.8995190528392223 0.3750000000001079 0
0.7165063509453771 0.1250000000000339 0
0.9330127018917513 0.2499999999998884 0
1.149519052838589 0.3750000000000104 0
0.96650635094557 0.1249999999999193 0
1.183012701891289 0.2499999999995436 0
1.399519052838297 0.3749999999999128 0
0.3582531754728102 0.06250000000007423 0
0.3415063509463874 0.1250000000002057 0
0.5747595264195536 0.1875000000001908 0
0.558012701893059 0.2500000000004055 0
0.79126587736606 0.3125000000001705 0
0.7745190528389536 0.3750000000001567 0
1.007772228312399 0.437500000000054 0
0.6082531754720346 0.06250000000001694 0
0.5915063509457933 0.1250000000000912 0
0.8247595264185642 0.1874999999999611 0
0.8080127018923245 0.2500000000000607 0
1.04126587736517 0.3124999999999494 0
1.024519052838905 0.3750000000000592 0
1.257772228311893 0.4375000000000052 0
0.8582531754724554 0.06249999999995966 0
0.8415063509454735 0.1249999999999766 0
1.074759526418429 0.1874999999997315 0
1.05801270189152 0.249999999999716 0
1.291265877364793 0.3124999999997282 0
1.274519052838443 0.3749999999999616 0
1.507772228311558 0.4374999999999564 0
1.091506350945671 0.124999999999862 0
1.30801270189106 0.2499999999993713 0
1.524519052838153 0.374999999999864 0
$EndNodes
$Elements
1 16 1 16
2 1 16 16
1 1 5 33 28 8 42 43 32 
2 28 33 34 27 43 44 45 31 
3 27 34 35 26 45 46 47 30 
4 26 35 21 4 47 48 25 29 
5 5 6 36 33 9 49 50 42 
6 33 36 37 34 50 51 52 44 
7 34 37 38 35 52 53 54 46 
8 35 38 20 21 54 55 24 48 
9 6 7 39 36 10 56 57 49 
10 36 39 40 37 57 58 59 51 
11 37 40 41 38 59 60 61 53 
12 38 41 19 20 61 62 23 55 
13 7 2 12 39 11 15 63 56 
14 39 12 13 40 63 16 64 58 
15 40 13 14 41 64 17 65 60 
16 41 14 3 19 65 18 22 62 
$EndElements
