$MeshFormat
4.1 0 8
$EndMeshFormat
$PhysicalNames
1
2 1 "Plate"
$EndPhysicalNames
$Entities
4 4 1 0
1 0 0 0 0 
2 1 0 0 0 
3 1 1 0 0 
4 0 1 0 0 
1 0 0 0 1 0 0 0 2 1 -2 
2 1 0 0 1 1 0 0 2 2 -3 
3 0 1 0 1 1 0 0 2 3 -4 
4 0 0 0 0 1 0 0 2 4 -1 
1 0 0 0 1 1 0 1 1 4 1 2 3 4 
$EndEntities
$Nodes
9 8 1 8
0 1 0 1
1
0 0 0
0 2 0 1
2
1 0 0
0 3 0 1
3
1 1 0
0 4 0 1
4
0 1 0
1 1 0 1
5
0.4999999999986718 0 0
1 2 0 1
6
1 0.4999999999986718 0
1 3 0 1
7
0.5000000000013304 1 0
1 4 0 1
8
0 0.5000000000013304 0
2 1 0 0
$EndNodes
$Elements
1 1 1 1
2 1 16 1
1 1 2 3 4 5 6 7 8 
$EndElements
